<svg id="SVGRoot" width="5.25in" height="5.25in" version="1.1" viewBox="-.204 -.204 5.25 5.25" xmlns="http://www.w3.org/2000/svg" xmlns:xlink="http://www.w3.org/1999/xlink">
 <g transform="translate(-1.6085 -1.3344)">
  <ellipse cx="3.9432" cy="3.9083" rx="2.4128" ry="2.4175" fill="#f5fded" style="paint-order:stroke markers fill"/>
  <path d="m6.0161 2.6976a2.4 2.4 0 0 1 0.17048 0.35649" fill="none" stroke="#000" stroke-width=".041667"/>
  <g display="none">
   <path id="a" d="m2.4285 4.5545s0.015636 0.03608 0.037004 0.08004c0.021356 0.043968 0.048448 0.095832 0.071341 0.1274 0.015176 0.02092 0.0329 0.04082 0.054178 0.055496 0.027288 0.01876 0.091174 0.03964 0.091174 0.03964s-0.00239-0.060408-0.015516-0.090756c-0.012288-0.0284-0.039208-0.063272-0.062183-0.084044-0.053224-0.048096-0.098484-0.080796-0.13043-0.10148-0.031948-0.02072-0.045569-0.02636-0.045568-0.02636zm0.25936 0.065968s0.00131 0.02568 0.00434 0.057416c0.00304 0.03176 0.0078 0.06966 0.014724 0.094172a0.27973 0.27973 0 0 0 0.034124 0.075284c0.012096 0.01872 0.044173 0.050196 0.044173 0.050196s0.012252-0.03908 0.01204-0.059224c-3.139e-4 -0.03048-0.00778-0.061396-0.02008-0.089348-0.010492-0.02388-0.026808-0.060012-0.046522-0.086164-0.0197-0.0262-0.042815-0.04232-0.042815-0.04232zm-0.22265 0.24182s0.070865 0.072224 0.11388 0.097776c0.02046 0.0122 0.043323 0.02104 0.066724 0.02536 0.021868 0.00412 0.066712 0 0.066712 0s-0.00398-0.02796-0.032204-0.060972c-0.0204-0.02388-0.060312-0.03852-0.089724-0.04946-0.058005-0.02156-0.12539-0.01268-0.12538-0.01268zm0.23227 0.02428s0.041426 0.084836 0.068944 0.12292c0.01852 0.0256 0.038956 0.050616 0.063958 0.06994 0.079661 0.061564 0.1239 0.055964 0.1239 0.055964s-0.00322-0.042828-0.011996-0.061944c-0.018584-0.040516-0.048418-0.076704-0.082933-0.10492-0.046831-0.03824-0.16188-0.081932-0.16188-0.081932zm-0.014984 0.23182s0.051546 0.04914 0.080934 0.068952c0.022112 0.01488 0.045647 0.02856 0.070949 0.03696 0.02146 0.00712 0.04435 0.01008 0.066952 0.011 0.055331 0.00223 0.081931-0.00604 0.081931-0.00604s-7.25e-5 -0.02748-0.047958-0.063948c-0.028012-0.02132-0.062575-0.03428-0.096927-0.04196-0.050731-0.01132-0.15588-0.00496-0.15588-0.00496zm0.19885-0.26779s0.018976 0.070216 0.031972 0.10292c0.011392 0.0286 0.023812 0.057308 0.040968 0.082932 0.014312 0.0214 0.032176 0.045868 0.052282 0.061916 0.016896 0.01348 0.055638 0.02696 0.055638 0.02696s-0.00225-0.050052-0.00899-0.07394c-0.00825-0.02924-0.020692-0.057908-0.037972-0.082932-0.021808-0.0316-0.052753-0.055864-0.080934-0.081932-0.039-0.03608-0.052959-0.03596-0.052961-0.03596zm0.095515 0.30115s0.042054 0.0479 0.066071 0.068716c0.029104 0.02524 0.060511 0.048072 0.093818 0.067392 0.01926 0.01116 0.039392 0.02156 0.060783 0.02776 0.02178 0.00636 0.044718 0.0088 0.067387 0.0092 0.01372 2.784e-4 0.040962-0.00404 0.040962-0.00404s-0.024828-0.04914-0.043606-0.068712c-0.021904-0.02284-0.049716-0.03988-0.077958-0.054164-0.036552-0.01848-0.076147-0.03152-0.11628-0.03964-0.029864-0.00612-0.091174-0.00664-0.091174-0.00664zm0.20746-0.03168s0.036424 0.055604 0.05946 0.079276c0.022748 0.0234 0.049311 0.042984 0.076636 0.060784 0.0246 0.016 0.049662 0.03316 0.077964 0.040956 0.023388 0.00648 0.072669 0.00404 0.072669 0.00404s-0.00932-0.03972-0.01982-0.056812c-0.01564-0.02548-0.03776-0.04736-0.062098-0.064756-0.032396-0.02312-0.070152-0.039-0.10835-0.050212-0.03114-0.00908-0.096456-0.01324-0.096456-0.01324zm-0.16254 0.25895s0.035032 0.02736 0.091185 0.0436c0.02776 0.00804 0.055796 0.01308 0.084568 0.01588 0.024584 0.00236 0.073285-7.732e-4 0.097778-0.00404 0.029836-0.00392 0.063427-0.0238 0.063427-0.0238s-0.022276-0.03284-0.046244-0.043608c-0.04188-0.0188-0.10275-0.02528-0.14864-0.02376-0.092078 0.00311-0.14208 0.03564-0.14208 0.03564zm0.30295-0.042524s0.079208 0.06358 0.12015 0.086108c0.036276 0.02 0.075622 0.03556 0.11614 0.044052 0.071879 0.01504 0.14017 0.00408 0.14017 0.00408s-0.011032-0.03188-0.022024-0.044052c-0.02914-0.03232-0.069252-0.0552-0.11014-0.070092-0.047446-0.01732-0.099752-0.01728-0.15018-0.02004-0.028668-0.00157-0.094113 0-0.094113 0zm0.26231-0.056072s0.064797 0.097684 0.10813 0.13617c0.027568 0.02448 0.059623 0.045064 0.09412 0.058076 0.029768 0.01124 0.096752 0.016 0.096752 0.016s0.00132-0.022-0.0047-0.03676c-0.012616-0.031-0.041141-0.063292-0.068019-0.0833-0.041662-0.03104-0.089217-0.054696-0.13817-0.072096-0.02826-0.01004-0.088106-0.01804-0.088106-0.01804zm-0.10464 0.26727s0.085541 0.02256 0.12933 0.02772c0.029064 0.00344 0.058591 0.00432 0.087756 0.00198 0.026752-0.00214 0.054824-0.00333 0.079184-0.01448 0.036608-0.01692 0.056085-0.03696 0.056085-0.03696-0.020872-0.02508-0.057648-0.0306-0.085123-0.03428-0.032476-0.00436-0.065757-0.00317-0.098309 6.644e-4 -0.037424 0.00436-0.074813 0.01216-0.1102 0.02508-0.020692 0.00756-0.058724 0.0304-0.058726 0.03036zm0.38845-0.02444c0.00626 0.00369 0.00986 0.00664 0.012076 0.0092 0 0 0.060444 0.01568 0.089737 0.0264 0.022112 0.00808 0.044953 0.01552 0.064664 0.0284 0.021504 0.01408 0.039124 0.03344 0.05675 0.052124 0.020052 0.02128 0.055421 0.067968 0.055421 0.067968l0.00926 0.01408 0.00698-3.668e-4s0.00395-0.040676 0.010444-0.0582c0.00646-0.01748 0.025372-0.02924 0.025372-0.02924l3.816e-4 -0.00964c-0.057632-0.0348-0.12091-0.070496-0.18241-0.085508-0.029248-0.00704-0.059055-0.01252-0.089078-0.01448-0.019316-0.00124-0.05958-6.76e-4 -0.05958-6.756e-4zm-1.1806-0.48271c-0.00417 0.01316-5.433e-4 0.0292 0.00702 0.040784 8e-3 0.01224 0.022476 0.02028 0.036568 0.02388 0.00636 0.00165 0.01376 0.00145 0.019688-0.00141 0.00687-0.00337 0.013292-0.0096 0.015464-0.01684 0.00324-0.01092-1.449e-4 -0.02376-0.00562-0.03376-0.00607-0.01104-0.016456-0.02052-0.028128-0.02532-0.00955-4e-3 -0.021312-0.00516-0.03094-0.00141-0.00618 0.00239-0.012056 0.00776-0.014076 0.01408zm0.13331-0.19555c-0.00962 0.0112-0.013604 0.02936-0.012 0.045004 0.00169 0.01652 0.011008 0.03216 0.021964 0.043116 0.00495 0.00492 0.011652 0.0086 0.018232 0.00868 0.00762 1.68e-4 0.016176-0.00289 0.021388-0.00912 0.0078-0.0094 0.010524-0.02416 0.010104-0.03712-4.66e-4 -0.01436-0.0055-0.02928-0.013804-0.040192-0.00678-0.00884-0.016752-0.0162-0.027024-0.01736-0.0066-7.532e-4 -0.014252 0.00164-0.018884 7e-3zm0.15979 0.45695c0.00573 0.01272 0.020048 0.02276 0.034456 0.02672 0.015216 0.00424 0.032964 0.00107 0.047296-0.0052 0.00647-0.00289 0.012516-0.00772 0.015456-0.01376 0.00342-0.00692 0.00441-0.01588 0.0011-0.02288-0.00494-0.01044-0.01676-0.01808-0.028348-0.02224-0.012812-0.0046-0.028132-0.00516-0.041234-0.00132-0.010716 0.00317-0.021404 0.0098-0.026824 0.01876-0.00348 0.00584-0.00465 0.01368-0.00189 0.01984zm0.38009 0.19271c0.00775 0.01156 0.023368 0.01896 0.03804 0.02032 0.015484 0.00149 0.032188-0.00468 0.045037-0.01332 0.00581-4e-3 0.010836-0.0098 0.012664-0.0162 0.00213-0.00752 0.00157-0.0164-0.00285-0.02276-0.0066-0.00944-0.01938-0.01492-0.031344-0.01696-0.013228-0.00228-0.028196-1.68e-4 -0.040268 0.00588-0.00988 0.00492-0.019108 0.01332-0.022836 0.0232-0.00238 0.0064-0.00217 0.01432 0.00156 0.01988zm-0.28348-0.41198c-0.00452 0.01432-5.87e-4 0.03176 0.00763 0.044284 0.00869 0.01324 0.0244 0.02204 0.039712 0.02596 0.00691 0.00179 0.023388 0.00157 0.029824-0.00153 0.00746-0.00361 6e-3 -0.0104 0.00836-0.01832 0.00353-0.01188-1.45e-4 -0.0258-0.0061-0.03664-0.00658-0.012-0.017868-0.02232-0.030548-0.02748-0.010368-0.00428-0.02314-0.0056-0.0336-0.00152-0.00672 0.00262-0.0131 0.00844-0.015272 0.01528zm0.41278 0.17188c-0.00608 0.01256-0.00454 0.03 0.00168 0.043572 0.00658 0.01436 0.020372 0.02592 0.034376 0.03292 0.00633 0.00317 0.013972 0.0046 0.02046 0.00307 0.00752-0.00186 0.014992-0.0068 0.018216-0.01388 0.00483-0.01052 0.0031-0.02448-0.00118-0.036-0.00474-0.01272-0.014136-0.02484-0.025504-0.0324-0.00931-0.00624-0.02124-0.01016-0.031652-0.00852-0.00669 0.00107-0.013468 0.00524-0.016396 0.01128z" fill="#009350" stroke-width=".0060372"/>
   <use transform="matrix(-1 0 0 1 8.0573 -1.1e-7)" fill="#009350" xlink:href="#a"/>
  </g>
  <g transform="translate(-.085741 .15243)" fill="#238b49" stroke-width=".0060372">
   <path d="m3.7005 5.4889c-0.016449 2.318e-4 -0.032918 0.0015-0.049194 0.00342-0.037424 0.00436-0.074806 0.012166-0.11019 0.025086-0.020643 0.00754-0.058431 0.030225-0.058614 0.030294 1.78e-4 4.7e-5 0.08547 0.022535 0.12921 0.02769 0.029064 0.00344 0.058604 0.00431 0.087769 0.00197 0.026752-0.00214 0.054823-0.00332 0.079183-0.014465 0.036608-0.01692 0.056091-0.036967 0.056091-0.036967-0.020872-0.02508-0.057649-0.030601-0.085124-0.034281-0.016238-0.00218-0.032685-0.00298-0.049133-0.00275z"/>
   <path d="m3.361 5.336c-0.019911 1.96e-4 -0.03618 5.887e-4 -0.036235 5.901e-4 1.422e-4 1.141e-4 0.079176 0.063531 0.12008 0.086039 0.036276 0.02 0.075629 0.035555 0.11615 0.044047 0.071879 0.01504 0.14016 0.00409 0.14016 0.00409s-0.011042-0.031875-0.022034-0.044047c-0.02914-0.03232-0.069245-0.055197-0.11013-0.070089-0.047446-0.01732-0.099759-0.01728-0.15019-0.02004-0.014334-7.85e-4 -0.037856-7.863e-4 -0.0578-5.901e-4z"/>
   <path d="m4.4703 5.2805c-7.09e-5 9.5e-6 -0.059831 0.00801-0.088074 0.018046-0.048949 0.0174-0.096501 0.041043-0.13816 0.072082-0.026878 0.020008-0.055397 0.052313-0.068013 0.083313-0.00602 0.01476-0.0047 0.036764-0.0047 0.036764s0.066973-0.00477 0.096741-0.016012c0.034497-0.013012 0.066568-0.033585 0.094137-0.058065 0.043303-0.038456 0.10798-0.13598 0.10807-0.13613z"/>
   <path d="m3.587 5.2805c9.54e-5 1.438e-4 0.064791 0.097673 0.10809 0.13613 0.027568 0.02448 0.059619 0.045053 0.094116 0.058065 0.029768 0.01124 0.096741 0.016012 0.096741 0.016012s0.00132-0.022004-0.0047-0.036764c-0.012616-0.031-0.041136-0.063305-0.068014-0.083313-0.041662-0.03104-0.089214-0.054682-0.13816-0.072082-0.028243-0.010034-0.088003-0.018037-0.088074-0.018046z"/>
   <path d="m5.316 5.1166c-0.032629-1.75e-4 -0.071599 0.00105-0.096965 0.00671-0.034352 0.00768-0.068912 0.020652-0.096924 0.041972-0.047885 0.036468-0.047953 0.063944-0.047953 0.063944s0.026599 0.00827 0.08193 0.00604c0.022602-9.2e-4 0.045496-0.00389 0.066956-0.011007 0.025302-0.0084 0.048831-0.022067 0.070943-0.036947 0.029388-0.019812 0.080933-0.068949 0.080933-0.068949-6e-7 0-0.02629-0.0016-0.058919-0.00177z"/>
   <path d="m4.9454 5.065c-0.0058 3.55e-4 -0.01158 0.00175-0.016764 0.00389-0.01268 0.00516-0.023958 0.015486-0.030538 0.027486-0.00596 0.01084-0.00963 0.024762-0.0061 0.036641 0.00236 0.00792 9.019e-4 0.014701 0.00836 0.018311 0.00644 0.0031 0.022916 0.00332 0.029826 0.00153 0.015312-0.00392 0.031023-0.01272 0.039713-0.02596 0.00822-0.012524 0.012149-0.029951 0.00763-0.044271l-2.03e-5 2.04e-5c-0.00217-0.00684-0.00854-0.012659-0.015259-0.015279-0.00523-0.00204-0.011049-0.00272-0.016846-0.00236z"/>
   <path d="m5.3376 5.0243c-0.00534 3.213e-4 -0.010667 0.00162-0.015442 0.00362-0.011672 0.0048-0.022067 0.014269-0.028137 0.025309-0.00548 0.01-0.00886 0.022853-0.00562 0.033773 0.00217 0.00724 0.00859 0.013455 0.015462 0.016825 0.00593 0.00286 0.013334 0.00307 0.019694 0.00142 0.014092-0.0036 0.02856-0.011645 0.03656-0.023885 0.00756-0.011584 0.011189-0.027632 0.00702-0.040792h4.06e-5c-0.00202-0.00632-0.0079-0.011689-0.014079-0.014079-0.00481-0.00188-0.010165-0.00252-0.015503-0.0022z"/>
   <path d="m5.3599 4.8866c-5.16e-5 2.05e-5 -0.11505 0.043699-0.16187 0.08193-0.034515 0.02822-0.064342 0.064403-0.082926 0.10492-0.00878 0.019116-0.012004 0.061951-0.012004 0.061951s0.04424 0.00559 0.1239-0.055969c0.025002-0.019324 0.045445-0.044326 0.063965-0.069926 0.027511-0.03807 0.068908-0.12286 0.068929-0.12291z"/>
   <path d="m5.5512 4.8606c-0.024096 4.75e-4 -0.05545 0.00364-0.084452 0.014425-0.029412 0.01094-0.069322 0.025579-0.089722 0.049459-0.028224 0.033012-0.032206 0.060974-0.032206 0.060974s0.044844 0.00412 0.066712 0c0.023401-0.00432 0.046272-0.01315 0.066732-0.02535 0.042995-0.025541 0.11379-0.097695 0.11385-0.097758-2.88e-5 -3.9e-6 -0.01684-0.00222-0.040915-0.00175z"/>
   <path d="m5.176 4.8505c-2e-6 0-0.013958-1.099e-4 -0.052958 0.03597-0.028181 0.026068-0.059125 0.05033-0.080933 0.08193-0.01728 0.025024-0.029714 0.053686-0.037964 0.082926-0.00674 0.023888-0.00899 0.073954-0.00899 0.073954s0.038748-0.013497 0.055644-0.026978c0.020106-0.016048 0.037955-0.04051 0.052266-0.06191 0.017156-0.025624 0.029583-0.054327 0.040975-0.082926 0.012996-0.032704 0.031982-0.10293 0.031982-0.10293z"/>
   <path d="m5.215 4.838c-0.010272 0.00116-0.020238 0.00851-0.027018 0.017354-0.0083 0.010912-0.013348 0.025842-0.013814 0.040202-4.2e-4 0.01296 0.00231 0.027709 0.010111 0.037109 0.00521 0.00623 0.013763 0.00928 0.021383 0.00911 0.00658-8e-5 0.013279-0.00375 0.018229-0.00867 0.010956-0.010956 0.020283-0.026612 0.021973-0.043132 0.0016-0.015634-0.00238-0.033781-0.011983-0.044983l-2.03e-5 -2.03e-5c-0.00463-0.00534-0.012269-0.00773-0.01886-0.00698z"/>
   <path d="m5.3695 4.6205c-3.66e-5 2.56e-5 -0.023122 0.016118-0.042806 0.042297-0.019714 0.026152-0.036037 0.062281-0.046529 0.086161-0.0123 0.027952-0.019746 0.058855-0.02006 0.089335-2.12e-4 0.020144 0.012024 0.059225 0.012024 0.059225s0.032073-0.031471 0.044169-0.050191a0.27973 0.27973 0 0 0 0.034139-0.075277c0.00692-0.024512 0.011669-0.062417 0.014709-0.094177 0.00303-0.031714 0.00435-0.057337 0.00435-0.057373z"/>
   <path d="m5.6289 4.5544c1e-6 0-0.013625 0.00563-0.045573 0.026347-0.031948 0.02068-0.077208 0.053385-0.13043 0.10148-0.022975 0.020772-0.049887 0.055645-0.062175 0.084045-0.013126 0.030348-0.015523 0.090759-0.015523 0.090759s0.063878-0.020872 0.091166-0.039632c0.021278-0.014676 0.039003-0.034581 0.054179-0.055501 0.022893-0.031572 0.049994-0.083433 0.07135-0.1274 0.021368-0.04396 0.037008-0.080058 0.037008-0.080058z"/>
   <path d="m4.1827 5.5325c-0.0058 3.55e-4 -0.01158 0.00175-0.016764 0.00389-0.01268 0.00516-0.023958 0.015486-0.030538 0.027486-0.00596 0.01084-0.00963 0.024762-0.0061 0.036641 0.00236 0.00792 9.019e-4 0.014701 0.00836 0.018311 0.00644 0.0031 0.022916 0.00332 0.029826 0.00153 0.015312-0.00392 0.031023-0.01272 0.039713-0.02596 0.00822-0.012524 0.012149-0.029951 0.00763-0.044271l-2.03e-5 2.04e-5c-0.00217-0.00684-0.00854-0.012659-0.015259-0.015279-0.00523-0.00204-0.011049-0.00272-0.016846-0.00236z"/>
  </g>
  <g transform="matrix(4 0 0 4 .32904 .070311)" fill="#0e51a7">
   <g transform="matrix(.15567 0 0 .15567 .43954 .60404)">
    <path transform="scale(.004 -.004)" d="m0-56v87c0 14 11 25 25 25h50c159 0 271 136 362 270 12 17 38-1 26-18-99-144-215-364-388-364z" fill="#0e51a7"/>
   </g>
   <g transform="matrix(.15567 0 0 .15567 .43954 1.3123)">
    <path transform="scale(.004 -.004)" d="m0 56h75c173 0 289-220 388-364 12-17-14-35-26-18-91 134-203 270-362 270h-50c-14 0-25 11-25 25z" fill="#0e51a7"/>
   </g>
   <g transform="matrix(.15567 0 0 .15567 .43954 .95818)">
    <rect y="-2.095" width=".45" height="4.19" ry="0" fill="#0e51a7"/>
   </g>
  </g>
  <g>
   <line x1="2.9358" x2="6.2468" y1="3.2805" y2="3.2805" stroke="#001b64" stroke-linecap="round" stroke-linejoin="round" stroke-width=".064084"/>
   <line x1="2.9105" x2="5.958" y1="5.1484" y2="5.1484" stroke="#fff" stroke-linecap="round" stroke-linejoin="round" stroke-width=".12"/>
   <path d="m3.5267 5.1355c-0.00153-0.00184-0.00185-0.00956-0.00113-0.0268 5.555e-4 -0.01332 0.00106-0.0292 0.00113-0.03516 2.173e-4 -0.01844-0.00333-0.060356-0.00542-0.064268-0.00109-0.00202-0.00197-0.00572-0.00197-0.0082s-0.00156-0.00768-0.00347-0.01148c-0.0019-0.00392-0.00565-0.01152-0.00834-0.01696a0.4493 0.4493 0 0 0-0.00738-0.01456c-0.00324-0.00592-0.0228-0.0254-0.02544-0.0254-0.00111 0-0.00394-0.00204-0.00629-0.00456-0.00236-0.00252-0.00523-0.00456-0.0064-0.00456s-0.00361-0.00163-0.00542-0.00368c-0.00181-2e-3 -0.00438-0.00368-0.00572-0.00368-0.00133 0-0.00386-0.0012-0.00562-0.0027-0.00759-0.00636-0.016892-0.01208-0.030848-0.01916l-0.014928-0.00756-0.01872 8.132e-4c-0.010284 4.544e-4 -0.02608 0.0022-0.035076 0.00396-0.00899 0.00169-0.021268 0.0035-0.027268 4e-3 -6e-3 4.704e-4 -0.012544 0.00161-0.014548 0.00254-2e-3 9.248e-4 -0.00894 0.00204-0.01546 0.00248-0.021472 0.00146-0.046166 0.00868-0.05361 0.01568-0.00214 0.00202-0.00474 0.00372-0.00577 0.00372s-0.00331 0.00159-0.00508 0.00358c-0.00432 0.00476-0.016808 0.00776-0.036456 0.00868-0.00899 4.216e-4 -0.017152 0.00153-0.018096 0.00248-9.468e-4 9.308e-4 -0.00381 0.0017-0.00636 0.00172-0.00255 1.2e-5 -0.00828 0.00129-0.012748 0.00292-0.00974 0.00344-0.026256 0.00796-0.033548 0.0092-0.00704 0.00124-0.02034-0.00256-0.029068-0.00836a0.30459 0.30459 0 0 0-0.010628-0.00676c-0.00195-0.00115-0.00667-0.00512-0.010476-0.00884-0.00694-0.00676-0.011516-0.00992-0.019976-0.01368a0.59402 0.59402 0 0 1-0.010424-0.0048c-0.00468-0.00222-0.00942-0.00256-0.022764-0.00157-0.02258 0.00164-0.02998 0.0016-0.038968-2.176e-4 -0.0103-0.00208-0.024248-0.015-0.024248-0.02248 0-0.00804-0.023508-0.02728-0.03328-0.02728-0.00205 0-0.00624-7.844e-4 -0.00932-0.00174l-0.029388-0.00916c-0.013104-0.00416-0.028644-0.00984-0.034552-0.01276-0.00591-0.00302-0.011744-0.00536-0.012956-0.00536-0.00122-6.8e-6 -0.00514-0.00165-0.0087-0.00368-0.00356-2e-3 -0.00769-0.00368-0.00916-0.00368-0.00148 0-0.00412-7.536e-4 -0.00585-0.00168-0.00173-9.256e-4 -0.01134-0.00252-0.02134-0.00354-0.010008-0.00101-0.021052-0.00232-0.024552-0.00298-0.0035-5.92e-4 -0.012088-0.00196-0.019092-0.00308-0.015276-0.00234-0.025288-0.00552-0.034772-0.01092a0.37385 0.37385 0 0 0-0.011764-0.00644c-0.00259-0.00133-0.0062-0.00412-0.00802-0.00608-0.00181-0.00202-0.00421-0.00372-0.00532-0.00372s-0.010992-0.00904-0.021956-0.02c-0.010972-0.01104-0.020764-0.02-0.021788-0.02-0.00101-1.24e-5 -0.00486-0.00296-0.00855-0.00636-0.00368-0.00354-0.0074-0.00636-0.00825-0.00636-0.00268 0-0.015688-0.0132-0.022424-0.02276-0.00354-0.00504-0.012088-0.02056-0.019-0.03456-0.00692-0.01404-0.014608-0.02872-0.017088-0.03272-0.00249-0.00408-0.00887-0.01568-0.014164-0.02596-0.00861-0.01672-0.00964-0.01996-0.00964-0.03008 0-0.00668-9.418e-4 -0.01232-0.00227-0.01364-0.00315-0.0032-0.0031-0.051992 4.84e-5 -0.055144 0.00309-0.00318 0.00278-0.01444-5.241e-4 -0.0192-0.00261-0.00376-0.014308-0.0124-0.023016-0.01704-0.00585-0.00318-0.023124-7e-3 -0.031736-0.00708-0.021304-1.692e-4 -0.032012-0.01256-0.037132-0.042792-0.00223-0.0132-0.0044-0.02284-0.01064-0.047272-0.00306-0.012-0.00558-0.024-0.0056-0.02672-2.41e-5 -0.00272-8.451e-4 -0.00544-0.00185-0.00604-1e-3 -6.16e-4 -0.00182-0.00272-0.00182-0.00456 0-0.0052-0.00604-0.02312-0.011124-0.03312a0.017616 0.017616 0 0 1-0.00161-0.00668c0-0.00195-8.137e-4 -0.00408-0.00182-0.00468-1e-3 -6.22e-4 -0.00182-0.00592-0.00182-0.0118s8.137e-4 -0.0112 0.00182-0.0118c0.00103-6.268e-4 0.00182-0.00928 0.00182-0.01976 0-0.0192-0.00295-0.02984-0.00989-0.0356-0.00157-0.00129-0.00284-0.00326-0.00284-0.00428 0-0.00262-0.00924-0.0122-0.01176-0.0122-0.00255 0-0.024604-0.0222-0.024604-0.02476 0-0.00107-0.00159-0.00344-0.00353-0.0052s-0.00405-0.0056-0.00469-0.00848c-6.351e-4 -0.00296-0.00191-0.00572-0.00283-0.00628-9.224e-4 -5.756e-4 -0.00168-0.00344-0.00168-0.00628 0-0.00296-8.163e-4 -0.00576-0.00182-0.00636-1e-3 -6.164e-4 -0.00183-0.00252-0.00184-0.0042-2.4e-5 -0.0033-0.00949-0.02292-0.013292-0.02756-0.00126-0.00154-0.00337-0.00532-0.0047-0.00824a0.11573 0.11573 0 0 0-0.00396-0.00816 0.25029 0.25029 0 0 1-0.00472-0.00908c-0.00174-0.00354-0.00585-0.01112-0.00913-0.017-0.00328-0.00584-0.00597-0.01176-0.00597-0.0132 0-0.0014-8.138e-4 -0.00256-0.00181-0.00256-1e-3 0-0.00182-0.00242-0.00182-0.0054 0-0.00302-7.244e-4 -0.0058-0.00163-0.00636-8.933e-4 -5.556e-4 -0.00205-0.00412-0.00258-0.00784-0.00211-0.01508-0.00977-0.041784-0.01318-0.045928-0.00157-0.00192-0.00245-0.01424-0.00292-0.0413-4.781e-4 -0.0274-0.00132-0.03924-0.00291-0.04082-0.00272-0.00275-0.00313-0.03348-4.635e-4 -0.03516 0.00309-0.00192 0.00899 0.00259 0.012568 0.00956 0.0019 0.00376 0.00518 0.00832 0.00728 0.01024 0.00211 0.0019 0.00383 0.0044 0.00383 0.0056 0 0.00117 0.00205 0.00408 0.00455 0.0064 0.0025 0.00234 0.00455 0.00524 0.00455 0.00636 0 0.00236 0.00941 0.01184 0.011748 0.01184 8.451e-4 0 0.00585 0.00394 0.011108 0.00868 0.012148 0.011 0.02918 0.02408 0.031268 0.02408 8.862e-4 0 0.00353 0.00205 0.00587 0.00452 0.00236 0.00252 0.0052 0.00452 0.00634 0.00452s0.00442 0.00246 0.0073 0.00548c0.00287 0.00304 0.00595 0.00548 0.00682 0.00548 8.815e-4 0 0.00429 0.00204 0.00757 0.00452 0.00327 0.00252 0.00658 0.00452 0.00734 0.00452 7.606e-4 0 0.00492 0.00238 0.00926 0.00536 0.010752 0.00728 0.016692 0.0098 0.039928 0.01716 0.044687 0.01416 0.060613 0.0174 0.092731 0.0188 0.024896 0.00107 0.057172-0.00254 0.067653-0.00756a0.53864 0.53864 0 0 1 0.012352-0.00568c0.00724-0.00324 0.035408-0.02908 0.035504-0.0326 2.41e-5 -0.00103 0.00371-0.0058 0.00818-0.01064 0.00448-0.0048 0.00813-0.00932 0.00813-0.01 0-6.952e-4 0.00285-0.00452 0.00633-0.00852 0.00348-0.00404 0.00634-0.00788 0.00636-0.00872 2.41e-5 -8.032e-4 0.00248-0.00412 0.00548-0.00728 3e-3 -0.00324 0.00545-0.00668 0.00546-0.00776 0-0.00107 0.00205-0.00394 0.00456-0.0062 0.0025-0.00237 0.00455-0.00528 0.00455-0.0064 0-0.00117 0.00164-0.00365 0.00364-0.00544 2e-3 -0.00181 0.00363-0.00428 0.00363-0.00556 0-0.00122 0.00115-0.00324 0.00255-0.00432 0.0014-0.00116 0.00472-0.00636 0.00738-0.0116s0.00638-0.01196 0.00831-0.01492c0.00192-0.00305 0.0064-0.01116 0.00996-0.01816 0.00358-7e-3 8e-3 -0.0152 0.00983-0.01816 0.00732-0.012 0.016512-0.0286 0.016512-0.02992 0-7.5e-4 0.00164-0.00289 0.00364-0.00464 2e-3 -0.00181 0.00363-0.00416 0.00363-0.00516s0.00205-0.00448 0.00455-0.00776c0.0025-0.0033 0.00455-0.0067 0.00455-0.00766 0-9.131e-4 0.00164-0.00317 0.00363-5e-3 2e-3 -0.00181 0.00364-0.00422 0.00364-0.00542 0-0.00115 0.00581-0.00776 0.012924-0.01474 0.0071-0.00698 0.015004-0.014884 0.017568-0.01768 0.00424-0.0045 0.00582-0.00503 0.01762-0.00503 0.00714 0 0.013752 7.431e-4 0.014696 0.00165 9.538e-4 9.057e-4 0.0048 0.00204 0.00858 0.00254 0.00376 4.825e-4 0.00804 0.00186 0.00947 0.00311 0.00328 0.00275 0.024812 0.00162 0.033688-0.00173 0.0035-0.00132 0.011192-0.00471 0.01708-0.00758 0.00589-0.00292 0.011756-0.00524 0.01302-0.00524 0.00128 0 0.0026-6.636e-4 0.00293-0.00147 0.00109-0.0027 0.027664-0.01474 0.036972-0.01676 0.0066-0.00146 0.015792-0.00147 0.033636-4.92e-5 0.013504 0.00109 0.031088 0.00231 0.039092 0.00275 0.020692 0.00105 0.039692 0.0039 0.055457 0.00815 0.0075 0.00205 0.017316 0.00464 0.021816 0.00581 0.0045 0.00115 0.01186 0.00379 0.016364 0.00574 0.00451 0.00199 0.00983 0.00425 0.01182 0.00507 0.00588 0.00229 0.032308 0.014492 0.037552 0.017364 0.00266 0.00144 0.00597 0.00264 0.00736 0.00264 0.0014 0 0.00356 0.00102 0.0048 0.00227 0.00126 0.00125 0.00285 0.00234 0.00354 0.00244 0.00147 1.69e-4 0.00628 2e-3 0.014 0.00532a0.16186 0.16186 0 0 0 0.012732 0.00453c4e-3 0.00124 0.0087 0.00304 0.010432 0.0039 0.00173 8.809e-4 0.00516 0.00159 0.00761 0.00159 0.00246 0 0.00497 8.207e-4 0.00559 0.00182 6.761e-4 0.00109 0.01272 0.00181 0.030008 0.00181s0.029324 7.374e-4 0.030008 0.00182c6.641e-4 0.00109 0.012712 0.00182 0.03 0.00182s0.029324-7.249e-4 0.03-0.00182c6.156e-4 -1e-3 0.00477-0.00182 0.00922-0.00182 0.00446 0 0.00952-7.25e-4 0.011252-0.00161 0.00174-8.887e-4 0.00561-0.00272 0.00861-0.00407 3e-3 -0.00134 0.00977-0.00518 0.015028-0.0084 0.00527-0.00333 0.010228-0.00595 0.011016-0.00595 7.848e-4 0 0.0042-0.00292 0.00759-0.00638 0.00339-0.00354 0.00706-0.00638 0.00814-0.00638 0.0025 0 0.020944-0.01856 0.020944-0.02112 0-0.00103 0.00225-0.00407 5e-3 -0.0067 0.00275-0.00267 0.00632-0.00751 0.00794-0.010844 0.0105-0.021436 0.019792-0.045405 0.019792-0.051113 0-0.00229 7.847e-4 -5e-3 0.00175-0.00592 9.611e-4 -9.658e-4 0.00266-0.00783 0.00378-0.01538 0.00111-0.00755 0.00284-0.0163 0.00382-0.01956 0.00103-0.00344 0.00127-0.012012 5.723e-4 -0.019984-0.00138-0.01584 7.486e-4 -0.026648 0.00641-0.032704 0.00202-0.00216 0.00367-0.0044 0.00367-0.00514 0-6.402e-4 0.00374-0.00539 0.00833-0.01042 0.00587-0.00656 0.00806-0.010384 0.00743-0.012968a0.51505 0.51505 0 0 0-0.00376-0.013744c-0.00157-0.00553-0.00287-0.012472-0.00288-0.015484-2.41e-5 -0.00602 0.00442-0.028668 0.00618-0.031536 6.11e-4 -9.899e-4 0.00116-0.011056 0.00121-0.022464 1.209e-4 -0.022464-9.658e-4 -0.026148-0.010824-0.036972-0.00312-0.00347-0.00568-0.00698-0.00568-0.00776 0-8.327e-4 -0.00144-0.00317-0.00319-0.0051-0.00175-0.00194-0.00626-0.00964-0.010024-0.017148l-0.00684-0.013608 2.42e-5 -0.038544c2.41e-5 -0.021224 7.655e-4 -0.04043 0.00167-0.042737 0.00263-0.0067 0.00584-0.040519 0.00606-0.063728 1.93e-4 -0.019596 4.782e-4 -0.021364 0.00361-0.021364 0.00187 0 0.00562 0.00205 0.00831 0.0045 0.0027 0.00251 0.00593 0.0045 0.0072 0.0045 0.00126 0 0.00229 7.251e-4 0.00229 0.00161 0 8.865e-4 0.00266 0.00304 0.00591 0.00461 0.00325 0.00165 0.00959 0.00585 0.014092 0.00929 0.00451 0.00351 0.00941 0.00684 0.010908 0.00755 0.0015 6.453e-4 0.00519 0.00301 0.00818 0.00514a0.08935 0.08935 0 0 0 0.012192 0.00709c0.0037 0.00172 0.00779 0.00415 0.0091 0.00542 0.00389 0.00376 0.053851 0.028596 0.057413 0.028596 0.00182 0 0.00408 7.19e-4 0.00504 0.00159 0.00223 0.00205 0.02204 0.00943 0.028564 0.010632 0.00276 5.064e-4 0.00548 0.00165 0.00604 0.00254 5.432e-4 8.816e-4 0.00295 0.00161 0.00536 0.00161a0.027952 0.027952 0 0 1 0.00852 0.00164c0.00768 0.00311 0.035 0.011164 0.041452 0.012368 0.0035 6.446e-4 0.02724 0.0017 0.052728 0.00234 0.044232 0.00112 0.061464 0.00304 0.086284 0.00932 0.00876 0.00224 0.0216 0.00507 0.0292 0.00638 3e-3 5.237e-4 0.00708 0.00165 0.00912 0.00251 2e-3 8.565e-4 0.00692 2e-3 0.01092 0.00256 0.00399 5.421e-4 0.013 0.0023 0.02 0.00394 7e-3 0.0016 0.016 0.00333 0.02 0.00386 4e-3 4.823e-4 0.00892 0.00159 0.01092 0.00246 2e-3 8.639e-4 0.00772 0.00207 0.01272 0.0027 5e-3 6.041e-4 0.0132 0.00187 0.01816 0.00289 5e-3 9.542e-4 0.01604 0.0027 0.02456 0.00382s0.01708 0.00278 0.01908 0.00361c2e-3 8.505e-4 0.00836 0.00199 0.01408 0.00254l0.02092 0.00194c0.00576 5.429e-4 0.01208 0.00175 0.01408 0.0027 2e-3 9.227e-4 0.00976 0.00204 0.01728 0.00249 0.00748 4.462e-4 0.0218 0.00217 0.0318 0.0039 0.01 0.00167 0.02512 0.00344 0.03364 0.0039 0.00852 4.462e-4 0.01708 0.00156 0.01908 0.00249 2e-3 9.185e-4 0.0118 0.00208 0.0218 0.00259 0.050676 0.00256 0.07258 0.00578 0.086512 0.01272 0.00322 0.00161 0.00776 0.00298 0.01004 0.00298 0.0023 0 0.00468 8.147e-4 0.00528 0.00181 0.00145 0.00237 0.00944 0.00237 0.01092 0 6.156e-4 -9.946e-4 0.0058-0.00181 0.01156-0.00181 0.00572 0 0.01124-7.678e-4 0.01216-0.0017 9.464e-4 -9.351e-4 0.00952-0.0021 0.019-0.00262a0.5798 0.5798 0 0 0 0.067276-0.00755c0.00952-0.00163 0.02096-0.00344 0.02544-0.00394 0.00452-5.025e-4 0.00984-0.00163 0.01184-0.00251 2e-3 -8.819e-4 0.00772-0.00198 0.01272-0.00244 0.01936-0.0018 0.041956-0.00524 0.044976-0.0068 0.00174-9.053e-4 0.01416-0.00164 0.0276-0.00164 0.01436 0 0.02488-7.526e-4 0.0256-0.00182 6.152e-4 -1e-3 0.00872-0.00182 0.0182-0.00182 0.00944 0 0.01756-8.135e-4 0.0182-0.00182 6.228e-4 -9.957e-4 0.00528-0.00181 0.0104-0.00181 0.00508 0 0.01184-7.849e-4 0.01488-0.00175 0.00308-9.538e-4 0.01252-0.00337 0.02104-0.00535a1.0921 1.0921 0 0 0 0.03576-0.00917c0.01948-0.00542 0.0216-0.0056 0.051816-0.00521 0.02252 3.019e-4 0.03268-2.175e-4 0.03548-0.00183 0.0022-0.00125 0.01012-0.00226 0.0176-0.00226 0.00752 0 0.01416-8.213e-4 0.01476-0.00182 6.16e-4 -1e-3 0.00272-0.00182 0.00468-0.00182 0.00194 0 0.00354-8.135e-4 0.00354-0.00181 0-1e-3 0.00143-0.00188 0.00318-0.00196 0.00175-7.3e-5 0.00564-0.00169 0.00864-0.00365a0.088601 0.088601 0 0 1 0.00984-0.00542c0.00238-0.00104 0.00612-0.00347 0.0082-0.00539 0.01964-0.017576 0.03564-0.031008 0.037-0.031008 9.056e-4 0 0.00358-0.00205 0.00596-0.0045 0.00236-0.00251 0.0052-0.0045 0.00648-0.0045 0.00121 0 0.00316-0.00118 0.00444-0.00264 0.00183-0.0022 0.0082-0.00581 0.0274-0.015696 0.00784-0.00407 0.02728-0.01258 0.02852-0.012616 8.084e-4 -5.9e-6 0.00548-0.00205 0.0104-0.0045 0.00488-0.00251 0.00996-0.0045 0.01116-0.0045 0.00208 0 0.02-0.0074 0.02672-0.011056 0.00173-9.351e-4 0.00496-0.0017 0.00736-0.0017 0.00232 0 0.00492-7.015e-4 0.00596-0.00156 0.00368-0.00337 0.046552-0.014776 0.055288-0.014776 0.00292 0 0.0058-7.285e-4 0.00636-0.00163 5.484e-4 -8.861e-4 0.00412-0.00203 0.00788-0.00254 0.00736-9.773e-4 0.03604-0.00766 0.045144-0.010452 0.00306-9.606e-4 0.00852-0.00174 0.01216-0.00174 0.00362 0 0.00704-8.135e-4 0.00776-0.00181 6.236e-4 -1e-3 0.00342-0.00182 0.00628-0.00182 0.00282 0 0.00812-0.00122 0.01168-0.00275 0.00358-0.0015 0.0102-0.00275 0.01468-0.00275 0.00452 0 0.00864-8.203e-4 0.00924-0.00182 6.236e-4 -9.971e-4 4e-3 -0.00181 0.0074-0.00181 0.00346 0 0.00776-7.364e-4 0.00944-0.00163 0.00174-8.993e-4 0.01296-0.00471 0.02496-0.00851 0.012-0.00379 0.02508-0.00825 0.02912-0.00992a0.90099 0.90099 0 0 1 0.02728-0.010844c2e-3 -7.484e-4 0.00776-0.00327 0.01272-0.00553a0.4847 0.4847 0 0 1 0.01272-0.0056c0.01152-0.00461 0.03008-0.01382 0.03636-0.018072a0.12618 0.12618 0 0 1 0.014-0.00794c0.00368-0.00171 0.00728-4e-3 8e-3 -0.00507 6.644e-4 -0.00107 0.00376-0.0032 0.00684-0.00453 0.00312-0.00142 0.00936-0.00546 0.01388-0.0089 0.00456-0.00354 0.01-0.00712 0.01208-0.00801 0.00216-9.414e-4 0.00452-0.00256 5e-3 -0.00365 6.4e-4 -0.00103 0.00404-0.0033 0.00744-0.00489 0.00346-0.00164 0.00632-0.00376 0.00632-0.00461 0-8.862e-4 0.00159-0.00161 0.00354-0.00161 0.00194 0 0.00408-8.38e-4 0.00468-0.00186 6.272e-4 -0.00102 0.01044-0.00642 0.02188-0.012012 0.0114-0.0056 0.02168-0.011268 0.0228-0.012684 0.00116-0.0014 0.00302-0.00255 0.00424-0.00256 0.00112-6.4e-6 5e-3 -0.00289 0.00872-0.00634 0.00368-0.00358 0.0074-0.00634 0.00828-0.00634 8.568e-4 0 0.00464-0.00287 0.00832-0.00638 0.00372-0.00358 0.0074-0.00634 0.00824-0.00634 8.16e-4 0 0.00472-0.00269 0.00864-0.00595 0.00836-0.00701 0.02592-0.016404 0.03624-0.019488 0.00672-0.00199 0.01472-0.00311 0.047276-0.00656 0.01252-0.00133 0.02404-0.00599 0.02688-0.010948 8.028e-4 -0.00139 0.00222-0.00252 0.00314-0.00252 9.308e-4 0 0.00608-0.00272 0.01128-0.00602 0.00524-0.00337 0.01488-0.00868 0.0214-0.011868 0.00648-0.00323 0.01304-0.00656 0.01456-0.00748 0.00684-0.00415 0.048588-0.02374 0.050536-0.02374 0.00121 0 0.0022-8.135e-4 0.0022-0.00182 0-1e-3 0.00124-0.00182 0.00276-0.00182 0.00151 0 0.00424-7.243e-4 0.00596-0.0016 0.00173-8.815e-4 0.01584-0.00786 0.03132-0.015556 0.01552-0.00769 0.03308-0.016724 0.03908-0.020056 0.00604-0.0034 0.01684-0.00908 0.02404-0.01272 0.0072-0.00368 0.0136-0.00737 0.01416-0.00829 5.672e-4 -9.247e-4 0.00412-0.00307 0.0078-0.00479 0.00368-0.00171 0.01104-0.00581 0.01632-0.00913 0.00524-0.00333 0.01028-0.00599 0.01108-0.00599 8.26e-4 0 0.00298-0.00163 0.00476-0.00368 0.00181-2e-3 0.00476-0.00368 0.00664-0.00368 0.00185 0 0.00336-7.848e-4 0.00336-0.00174 0-9.457e-4 0.00306-0.00314 0.0068-0.00482a0.088807 0.088807 0 0 0 0.01224-0.00705 0.090014 0.090014 0 0 1 0.012-0.00698c0.00362-0.00168 0.0076-0.00429 0.00884-0.00581 0.00127-0.00152 0.00332-0.00276 0.00464-0.00276 0.00127 0 0.00468-0.00122 0.00752-0.00272 7e-3 -0.00372 0.02588-0.00372 0.02732-1.21e-5 0.00119 0.00311 0.00648 0.00358 0.01112 9.66e-4 0.00412-0.00227 0.01984-0.00734 0.02288-0.00734 0.00868 0 0.03936-0.021968 0.03936-0.028164 0-0.00248 0.01496-0.017256 0.01748-0.017256 0.00103 0 0.00428-0.00245 0.00704-0.00549 0.00288-3e-3 0.00624-0.00549 0.0074-0.00549 0.00119 0 0.0033-0.00135 0.00468-0.00301 0.00137-0.00166 0.00824-0.00755 0.01524-0.013036 0.00696-0.00556 0.0152-0.012328 0.0182-0.015024 0.0096-0.00878 0.02844-0.024272 0.0322-0.0264 0.00197-0.00113 0.00624-0.00457 0.00944-0.00772 0.0032-0.00312 0.00672-0.0057 0.00784-0.0057 0.00108 0 0.00296-0.00121 0.00424-0.00269 0.00122-0.00148 0.00448-0.00382 7e-3 -0.00521 0.00824-0.00432 0.01368-0.00751 0.019-0.011056 0.00896-0.00606 0.02316-0.00978 0.03004-0.00786 0.00624 0.0017 0.02864 9.854e-4 0.040288-0.00129 0.00348-6.81e-4 0.01044-0.00314 0.01544-0.00546 0.00496-0.00232 0.01292-0.00595 0.0176-0.00801 0.00468-0.00209 9e-3 -0.00457 0.00964-0.00556 5.916e-4 -9.612e-4 0.0022-0.00132 0.00354-7.922e-4 0.00137 5.24e-4 0.00304 1.204e-4 0.00368-9.294e-4 6.392e-4 -0.00104 0.00632-0.0044 0.01244-0.00755 0.01744-0.00875 0.02544-0.013184 0.03164-0.01764 0.00312-0.00225 0.00656-0.00407 0.00752-0.00407 9.664e-4 0 0.00278-0.00118 4e-3 -0.00263 0.0012-0.00144 0.00808-0.00563 0.01524-0.00931 0.00712-0.00368 0.01416-0.00758 0.01552-0.00868 0.00334-0.00272 0.00844-0.00549 0.04298-0.023692 0.00492-0.00263 0.01152-0.00479 0.0144-0.0048h0.00528l-0.00124 0.030488c-6.88e-4 0.01676-0.00212 0.03412-0.0032 0.038636a0.15881 0.15881 0 0 0-0.0029 0.017256c-5.028e-4 5e-3 -0.00165 0.00986-0.00256 0.010844-9.06e-4 9.464e-4 -0.00165 0.00331-0.00165 0.00524 0 0.00194-0.00572 0.00912-0.01272 0.016048-0.00696 0.00687-0.01272 0.013716-0.01272 0.0152 0 0.0015-6.808e-4 0.00272-0.00151 0.00272-8.328e-4 0-0.00266 0.00225-0.00412 5e-3 -0.00138 0.00275-0.00342 0.00617-0.00464 0.00772-0.00182 0.00232-0.0138 0.024236-0.02204 0.040267-0.00135 0.00264-0.00366 0.00585-0.00512 0.00705-0.00148 0.00123-0.00276 0.00315-0.00278 0.00429-7.28e-5 0.00252-0.00896 0.01226-0.01376 0.014916-0.01448 0.00829-0.02136 0.010984-0.03436 0.0135a160.26 160.26 0 0 1-0.02044 4e-3c-0.01016 0.00196-0.033 0.00956-0.042288 0.014136-0.0168 0.00822-0.0196 0.00992-0.0252 0.015272-0.00276 0.00263-0.00576 0.00475-0.00668 0.00479-9.42e-4 6.4e-6 -0.00472 0.00287-0.00844 0.0063-0.00368 0.00351-0.00756 0.00631-0.00852 0.00631-9.904e-4 0-0.0042 0.00189-0.00688 0.00422-0.00286 0.00231-0.00976 0.00638-0.01532 0.00908-0.01452 0.00701-0.01984 0.014352-0.01984 0.0275 0 0.0044-8.168e-4 0.0086-0.00181 0.00921-1e-3 6.162e-4 -0.00182 0.0068-0.00182 0.013608 0 0.00691-7.124e-4 0.012968-0.00158 0.0135-8.696e-4 5.435e-4 -0.00208 0.00358-0.00274 0.00666-0.00133 0.00666-0.01812 0.024984-0.02424 0.0265-0.0023 5.794e-4 -0.0042 0.00178-0.0042 0.00268 0 8.936e-4 -0.00143 0.00163-0.00316 0.00163-0.00175 6.4e-6 -0.00548 0.00124-0.0084 0.00273-0.00288 0.00149-0.00668 0.00272-0.00852 0.00272-0.00182 0-0.00384 8.131e-4 -0.00452 0.00182-6.152e-4 1e-3 -0.00272 0.00182-0.00468 0.00182-0.00195 0-0.00696 0.00157-0.01128 0.00358-0.00432 0.00191-0.01096 0.0044-0.015 0.0057-0.00404 0.00121-0.00856 0.0034-0.0102 0.00471-0.00158 0.00138-0.0033 0.00207-0.00384 0.00155-5.232e-4 -5.322e-4 -0.00199 2.898e-4 -0.00324 0.00181-0.00127 0.00153-0.00384 0.00278-0.00576 0.00278-0.00187 0-0.0034 8.14e-4 -0.0034 0.00181 0 1e-3 -0.00153 0.00182-0.0034 0.00182-0.00188 0-0.00452 0.00123-0.00568 0.00272-0.00125 0.0015-0.00326 0.00273-0.00456 0.00273-0.00122 0-0.00372 0.00164-0.00552 0.00372-0.00181 2e-3 -0.00424 0.00372-0.00524 0.00372-0.0011 1.24e-5 -0.00568 0.00372-0.01016 0.00808-0.00456 0.0044-0.00912 0.00812-0.01036 0.00815-0.00119 4.89e-5 -0.01044 0.00825-0.0206 0.018248-0.01016 0.01-0.0194 0.018168-0.02064 0.018168s-0.00496 0.00287-0.00844 0.00634c-0.0034 0.00354-0.00704 0.00634-0.00824 0.00634-0.00113 0-4e-3 0.00205-0.00636 0.00453-0.00236 0.0025-0.00516 0.00453-0.00636 0.00453-0.00113 0-0.00366 0.00147-0.0056 0.00333-0.00193 0.00181-0.00476 0.00386-0.00628 0.0045-0.0015 6.776e-4 -0.00604 0.00333-0.01 0.00574-0.01884 0.011552-0.06312 0.033804-0.06734 0.033804-0.00121 0-0.00322 0.00121-0.00452 0.00272-0.00123 0.00149-0.00288 0.00231-0.00368 0.00183-0.00142-8.819e-4 -0.03848 0.017464-0.043616 0.021612-0.0015 0.00121-0.00644 0.00407-0.01088 0.0063-0.00996 0.00503-0.01864 0.011164-0.02764 0.019488-0.00372 0.00351-0.0074 0.00624-0.0082 0.00624-7.896e-4 6e-6 -0.00828 0.00656-0.0166 0.014564-0.00836 0.00797-0.0158 0.014528-0.01664 0.014528-8.092e-4 0-0.00764 0.00574-0.01508 0.01272-0.00752 0.00701-0.0144 0.01272-0.01532 0.01272-0.00206 0-0.0346 0.033732-0.03964 0.041036-0.00428 0.00617-0.01 0.018424-0.01 0.021332 0 0.00365-0.00776 0.017932-0.01192 0.022072-0.0023 0.00229-0.00684 0.00606-0.0102 0.00843-0.016 0.011236-0.02724 0.024272-0.03528 0.04094-0.00452 0.00917-0.00808 0.017612-0.00808 0.018776 0 0.00606-0.02244 0.023776-0.03016 0.023776-0.00318 0-0.01712 0.00769-0.01712 0.00943 0 8.139e-4 -0.00133 0.00149-0.00294 0.00149-0.00162 0-0.00568 0.00225-9e-3 0.00503-0.01108 0.00911-0.01744 0.014068-0.02156 0.016796-0.01592 0.010632-0.0212 0.013892-0.0292 0.018208a0.13701 0.13701 0 0 1-0.01908 0.00808c-0.00548 0.00177-0.01144 0.00397-0.01316 0.00479-0.00173 8.806e-4 -0.00704 0.0016-0.01192 0.0016-0.0048 0-0.00956 7.36e-4 -0.01048 0.00163-9.536e-4 9.058e-4 -0.00492 0.00203-0.00896 0.00254-0.00796 9.653e-4 -0.0222 5e-3 -0.03092 0.00868-3e-3 0.00127-0.00664 0.00256-0.0082 0.00289-0.00148 2.892e-4 -0.00298 0.00139-0.00334 0.00244-3.496e-4 0.00106-0.00177 0.00192-0.00314 0.00192-0.00366 0-0.01456 0.010064-0.01932 0.017856a0.092743 0.092743 0 0 1-0.00916 0.012192c-0.00278 0.00304-5e-3 0.00634-5e-3 0.00744 0 0.00108-0.00206 0.00394-0.0046 0.0062-0.0025 0.00236-0.0046 0.00532-0.0046 0.00648 0 0.00121-0.00125 0.00327-0.00278 0.00446-0.00318 0.00264-0.02992 0.056637-0.02992 0.0604 0 0.00136-7e-4 0.0033-0.00155 0.00422-8.564e-4 9.476e-4 -0.0038 0.00908-0.00656 0.018072-0.00274 9e-3 -0.00576 0.018208-0.0066 0.020552-0.00226 0.00578-0.00212 0.052594 1.936e-4 0.054011 9.948e-4 6.159e-4 0.00182 5e-3 0.00183 0.0096 1.24e-5 0.010632 0.00772 0.047952 0.01288 0.062852 0.00556 0.015872 0.01696 0.037404 0.02344 0.044218 0.00302 0.00323 0.00548 0.00668 0.00548 0.00772 0 0.00106 0.00368 0.0058 0.0082 0.01056 0.00456 0.00476 0.0082 0.00948 0.0082 0.01056 6.4e-6 0.00106 0.00288 0.00468 0.0064 0.00808 0.0035 0.00344 0.00636 0.00712 0.00636 0.00816 0 0.0011 0.00368 0.00564 0.0082 0.01 0.00456 0.0044 0.0082 0.00888 0.0082 0.00992s0.00456 0.00668 0.01 0.01244c0.00548 0.00576 0.01 0.01152 0.01 0.0128 0 0.00127 0.00368 0.00592 0.0082 0.01036 0.00456 0.00436 0.0082 0.00888 0.0082 0.01 0 0.00108 0.00456 0.0064 0.01 0.0118 0.00548 0.00544 0.01004 0.01068 0.01004 0.01176 6.4e-6 0.00103 0.00572 0.00764 0.01268 0.0146 0.00688 7e-3 0.01268 0.01352 0.01272 0.01456 4.88e-5 9.948e-4 0.00548 0.00756 0.01208 0.01452 0.0066 7e-3 0.01416 0.01556 0.0168 0.019 0.00264 0.00348 0.00976 0.01148 0.01572 0.01792 0.00608 0.0064 0.01172 0.01304 0.0126 0.01468 9.372e-4 0.00165 0.00456 0.00604 0.00808 0.00984 0.00348 0.0038 0.00776 0.00908 0.0094 0.0118 0.00169 0.00278 0.0048 0.00656 0.00692 0.00852 0.00214 0.00191 0.00396 0.00432 0.00396 0.00548 2.44e-5 0.00109 0.00508 0.00744 0.0114 0.01408 0.01032 0.011 0.02108 0.02452 0.02596 0.03256 0.00104 0.00172 3e-3 0.00444 0.00448 0.00612 0.00314 0.00382 0.011 0.0192 0.011 0.0216 0 9.772e-4 0.00192 0.00596 0.00432 0.01104 0.0068 0.01484 0.0126 0.03228 0.01352 0.040636l7.972e-4 0.00768h-0.047372c-0.02964 0-0.047768-6.828e-4 -0.048484-0.00182-6.156e-4 -9.944e-4 -0.00636-0.00181-0.01272-0.00181-0.01124 0-0.01728-0.00177-0.03176-0.0092-0.01828-0.00944-0.03428-0.01628-0.03812-0.01628-0.00192 0-0.00396-7.244e-4 -0.00456-0.00163-0.0023-0.00376-0.042216-0.00692-0.051904-0.00412-0.00352 0.00101-0.01112 0.00292-0.01692 0.00412-0.00584 0.00124-0.01092 0.00302-0.01152 0.0038-5.144e-4 8.336e-4 -0.00222 0.00151-0.0038 0.00151-0.00544 0-0.0324 0.01452-0.040408 0.0218-0.00452 0.00408-0.00868 0.00732-0.00948 0.00732-7.856e-4 0-0.00812 0.00636-0.01624 0.01412-0.0082 0.00772-0.01572 0.01444-0.01688 0.0148-0.00114 4.116e-4 -0.00492 0.0035-0.00844 0.0068-0.00352 0.00336-0.00728 0.00604-0.0084 0.00604-0.00109 1.2e-5 -0.00346 0.00163-0.0052 0.00364-0.00179 0.00198-0.00396 0.00324-0.00476 0.00272-8.132e-4 -5.064e-4 -0.00584 0.00118-0.01112 0.0038-0.00856 0.00416-0.01364 0.00584-0.02828 0.0094-0.00224 5.432e-4 -0.00684-3.256e-4 -0.01028-0.00194-0.0034-0.00162-0.00688-0.00302-0.00796-0.00302-9.42e-4 0-0.0032-0.00163-0.00492-0.00368-0.0018-2e-3 -0.00424-0.00368-0.00524-0.00368-0.00109 0-0.00464-0.00246-0.00784-0.00548-0.0032-0.00304-0.0066-0.00548-0.0076-0.00548-9.784e-4 0-0.00412-0.0019-0.00684-0.0042a0.072905 0.072905 0 0 0-0.01152-0.00736 0.15805 0.15805 0 0 1-0.01184-0.00664c-0.00544-0.0035-0.043344-0.02236-0.06322-0.03152-0.0058-0.0027-0.01208-0.00484-0.01396-0.00484-0.00192 0-0.00392-6.76e-4 -0.00452-0.00151-5.144e-4 -8.328e-4 -0.00656-0.0026-0.01348-0.00394-0.01268-0.00238-0.0266-0.00185-0.042632 0.00167-0.00472 0.00105-0.01212 0.0027-0.01636 0.00364l-0.015 0.00336c-0.00404 8.744e-4 -0.00904 0.00256-0.01124 0.00376-0.00218 0.00118-0.00812 0.00214-0.01308 0.00214-0.00492 0-0.00964 8.216e-4 -0.01024 0.00182-6.348e-4 0.00103-0.0094 0.00182-0.02004 0.00182-0.0106 0-0.0194 7.904e-4 -0.02 0.00181-6.16e-4 1e-3 -0.00456 0.00182-0.0086 0.00182-0.00772 0-0.02528 0.00524-0.035 0.01036-0.00672 0.00362-0.02064 0.0166-0.02292 0.02152-9.176e-4 0.00199-0.00372 0.00696-0.00624 0.01092-0.0025 0.00404-0.00536 0.00892-0.0064 0.01092-9.952e-4 2e-3 -0.00388 0.00696-0.0064 0.01092-0.0025 0.00404-0.00496 0.00852-0.00564 0.01-5.872e-4 0.00151-0.00214 0.00524-0.00346 0.00816-0.00916 0.02096-0.0098 0.02436-0.01008 0.054208-1.456e-4 0.016-9.18e-4 0.0304-0.00174 0.032-0.00232 0.0044-0.00904 0.02808-0.00904 0.03164 0 0.00177 0.00232 0.00452 0.00508 0.00612 0.00736 0.0042 0.00992 0.01124 0.00876 0.02464-0.00105 0.01312-0.00266 0.02252-0.00476 0.02772-8.16e-4 0.00199-0.00296 0.00736-0.00472 0.0118-0.00181 0.00448-0.00456 0.0096-6e-3 0.01132a0.055053 0.055053 0 0 0-0.00468 0.00668c-0.00109 0.0019-0.00468 0.00732-0.00804 0.012-0.00776 0.01104-0.01124 0.02124-0.01128 0.03284-4.84e-5 0.01444-0.00282 0.016-0.02592 0.01464-0.01028-6.208e-4 -0.02388-0.00187-0.03012-0.00284-0.02048-0.00302-0.03752 0.0039-0.05568 0.0222-0.00704 0.0072-0.02176 0.01956-0.0326 0.02756-0.0108 0.00796-0.0228 0.0172-0.0266 0.0204-0.00376 0.0033-0.00796 0.00592-0.00912 0.00592-0.00127 0-0.00424 0.00204-0.00652 0.00452-0.00232 0.00252-0.0054 0.00452-0.00688 0.00452-0.00149 0-0.0032 8.144e-4 -0.00384 0.00181-6.152e-4 0.00101-0.00292 0.00183-0.00504 0.00184-0.00218 5.6e-6 -0.00636 0.00123-0.00916 0.00278-0.00286 0.00149-8e-3 0.00276-0.01128 0.00276-0.00332 0-0.00656 8.132e-4 -0.00712 0.00181-6.152e-4 1e-3 -0.00504 0.00182-0.01 0.00182-0.00484 0-0.0094 8.224e-4 -0.00996 0.00182-6.16e-4 1e-3 -0.00488 0.00182-0.00948 0.00182-0.00808 0-0.044324 0.01104-0.049144 0.01492-0.00126 0.00102-0.00228 0.00139-0.00228 8.208e-4 0-5.676e-4 -0.00388 6.156e-4 -0.00864 0.00264-0.00476 2e-3 -0.01028 0.00428-0.01228 0.00516-0.0226 0.00912-0.05216 0.0244-0.053332 0.02756-3.308e-4 8.924e-4 -0.00208 0.00163-0.00386 0.00163-0.0018 0-0.00428 0.00123-0.00552 0.00276-0.00124 0.0015-0.00328 0.00278-0.00456 0.00278-0.00126 0-0.00338 0.00131-0.00472 0.00298-0.00133 0.00161-0.00408 0.00372-0.00612 0.00452-0.00342 0.00152-0.0066 0.00344-0.02068 0.01204-0.01172 0.00728-0.01956 0.01292-0.02284 0.0166-0.0019 0.00214-0.00448 0.0039-0.00568 0.0039-0.00122 0-0.00324 0.00122-0.00448 0.00278-0.00124 0.0015-0.00416 0.00276-0.00648 0.00276s-0.00472 8.212e-4 -0.00536 0.00182c-6.156e-4 9.944e-4 -0.00432 0.00181-0.0082 0.00181s-0.00752 7.364e-4 -0.00808 0.00163c-5.556e-4 8.936e-4 -0.00408 0.00206-0.00784 0.0026-0.00376 5.24e-4 -0.01052 0.00184-0.015 0.00298-0.01748 0.0042-0.03392 0.00768-0.040468 0.00868-0.00376 5.356e-4 -0.00728 0.0017-0.00784 0.00262-5.48e-4 8.936e-4 -0.00212 0.00163-0.0035 0.00163-0.00386 0-0.02556 0.01048-0.02816 0.0136-0.00127 0.00153-0.00326 0.00284-0.00444 0.00284s-0.00492 0.00296-0.00832 0.00636c-0.0034 0.00354-0.0072 0.00636-0.00844 0.00636-0.00125 0-0.00448 0.00204-0.00716 0.00456-0.00436 0.00412-0.0064 0.00452-0.01872 0.00444-0.0076-7.2e-5 -0.01872-9.052e-4 -0.02472-0.00183a0.35199 0.35199 0 0 0-0.02272-0.00256 0.37805 0.37805 0 0 1-0.02364-0.0027c-0.0176-0.0027-0.051592-0.0044-0.086368-0.0044-0.02852 5.2e-6 -0.03876 0.00101-0.060916 6e-3 -0.0258 0.00584-0.03024 0.00684-0.03272 0.00784-0.0015 5.592e-4 -0.0064 0.00199-0.01092 0.00324-0.00452 0.00118-0.01064 0.00292-0.01364 0.0038a1.3849 1.3849 0 0 1-0.02272 0.00636c-0.01484 0.0034-0.02208 0.00548-0.02728 0.00788-0.0035 0.00164-0.0076 0.00318-0.00912 0.00326-0.00404 3.672e-4 -0.04034 0.01864-0.04454 0.02248-2e-3 0.0018-0.00464 0.00366-0.00588 0.00404-0.0029 9.012e-4 -0.0314 0.029-0.0314 0.03096 0 8.332e-4 -0.00388 6e-3 -0.00864 0.01144-0.01504 0.01708-0.01784 0.02168-0.02252 0.03716-0.00313 0.01036-0.00318 0.05004-7.24e-5 0.053144 0.00118 0.00117 0.00214 6e-3 0.00214 0.01076 0 0.00472 8.164e-4 0.00912 0.00181 0.0098 1e-3 6.156e-4 0.00182 0.0046 0.00182 0.00876 0 0.0084 0.00492 0.02348 0.01068 0.03264 0.0036 0.00576 0.00488 0.00836 0.01424 0.0286 0.00254 0.00552 0.00532 0.01144 0.0062 0.0132 0.00292 0.00572 0.0017 0.00856-0.00564 0.01324-0.0058 0.00372-0.00956 0.0046-0.01912 0.0046-0.00652 0-0.01328-7.444e-4 -0.01504-0.00165-0.0125-0.00656-0.020472-0.00772-0.045423-0.00664-0.02648 0.00116-0.036308 0.00298-0.049565 0.00876-0.012296 0.00548-0.014956 0.00644-0.020904 0.00772l-0.012728 0.00272c-0.00399 8.056e-4 -0.010128 0.0024-0.013628 0.00354-0.00875 0.0028-0.017328 0.00252-0.019892-5.792e-4z" fill="none" stroke="#007be1" stroke-width=".12"/>
  </g>
  <path d="m3.5267 5.1355c-0.00153-0.00184-0.00185-0.00956-0.00113-0.0268 5.555e-4 -0.01332 0.00106-0.0292 0.00113-0.03516 2.173e-4 -0.01844-0.00333-0.060356-0.00542-0.064268-0.00109-0.00202-0.00197-0.00572-0.00197-0.0082s-0.00156-0.00768-0.00347-0.01148c-0.0019-0.00392-0.00565-0.01152-0.00834-0.01696a0.4493 0.4493 0 0 0-0.00738-0.01456c-0.00324-0.00592-0.0228-0.0254-0.02544-0.0254-0.00111 0-0.00394-0.00204-0.00629-0.00456-0.00236-0.00252-0.00523-0.00456-0.0064-0.00456s-0.00361-0.00163-0.00542-0.00368c-0.00181-2e-3 -0.00438-0.00368-0.00572-0.00368-0.00133 0-0.00386-0.0012-0.00562-0.0027-0.00759-0.00636-0.016892-0.01208-0.030848-0.01916l-0.014928-0.00756-0.01872 8.132e-4c-0.010284 4.544e-4 -0.02608 0.0022-0.035076 0.00396-0.00899 0.00169-0.021268 0.0035-0.027268 4e-3 -6e-3 4.704e-4 -0.012544 0.00161-0.014548 0.00254-2e-3 9.248e-4 -0.00894 0.00204-0.01546 0.00248-0.021472 0.00146-0.046166 0.00868-0.05361 0.01568-0.00214 0.00202-0.00474 0.00372-0.00577 0.00372s-0.00331 0.00159-0.00508 0.00358c-0.00432 0.00476-0.016808 0.00776-0.036456 0.00868-0.00899 4.216e-4 -0.017152 0.00153-0.018096 0.00248-9.468e-4 9.308e-4 -0.00381 0.0017-0.00636 0.00172-0.00255 1.2e-5 -0.00828 0.00129-0.012748 0.00292-0.00974 0.00344-0.026256 0.00796-0.033548 0.0092-0.00704 0.00124-0.02034-0.00256-0.029068-0.00836a0.30459 0.30459 0 0 0-0.010628-0.00676c-0.00195-0.00115-0.00667-0.00512-0.010476-0.00884-0.00694-0.00676-0.011516-0.00992-0.019976-0.01368a0.59402 0.59402 0 0 1-0.010424-0.0048c-0.00468-0.00222-0.00942-0.00256-0.022764-0.00157-0.02258 0.00164-0.02998 0.0016-0.038968-2.176e-4 -0.0103-0.00208-0.024248-0.015-0.024248-0.02248 0-0.00804-0.023508-0.02728-0.03328-0.02728-0.00205 0-0.00624-7.844e-4 -0.00932-0.00174l-0.029388-0.00916c-0.013104-0.00416-0.028644-0.00984-0.034552-0.01276-0.00591-0.00302-0.011744-0.00536-0.012956-0.00536-0.00122-6.8e-6 -0.00514-0.00165-0.0087-0.00368-0.00356-2e-3 -0.00769-0.00368-0.00916-0.00368-0.00148 0-0.00412-7.536e-4 -0.00585-0.00168-0.00173-9.256e-4 -0.01134-0.00252-0.02134-0.00354-0.010008-0.00101-0.021052-0.00232-0.024552-0.00298-0.0035-5.92e-4 -0.012088-0.00196-0.019092-0.00308-0.015276-0.00234-0.025288-0.00552-0.034772-0.01092a0.37385 0.37385 0 0 0-0.011764-0.00644c-0.00259-0.00133-0.0062-0.00412-0.00802-0.00608-0.00181-0.00202-0.00421-0.00372-0.00532-0.00372s-0.010992-0.00904-0.021956-0.02c-0.010972-0.01104-0.020764-0.02-0.021788-0.02-0.00101-1.24e-5 -0.00486-0.00296-0.00855-0.00636-0.00368-0.00354-0.0074-0.00636-0.00825-0.00636-0.00268 0-0.015688-0.0132-0.022424-0.02276-0.00354-0.00504-0.012088-0.02056-0.019-0.03456-0.00692-0.01404-0.014608-0.02872-0.017088-0.03272-0.00249-0.00408-0.00887-0.01568-0.014164-0.02596-0.00861-0.01672-0.00964-0.01996-0.00964-0.03008 0-0.00668-9.418e-4 -0.01232-0.00227-0.01364-0.00315-0.0032-0.0031-0.051992 4.84e-5 -0.055144 0.00309-0.00318 0.00278-0.01444-5.241e-4 -0.0192-0.00261-0.00376-0.014308-0.0124-0.023016-0.01704-0.00585-0.00318-0.023124-7e-3 -0.031736-0.00708-0.021304-1.692e-4 -0.032012-0.01256-0.037132-0.042792-0.00223-0.0132-0.0044-0.02284-0.01064-0.047272-0.00306-0.012-0.00558-0.024-0.0056-0.02672-2.41e-5 -0.00272-8.451e-4 -0.00544-0.00185-0.00604-1e-3 -6.16e-4 -0.00182-0.00272-0.00182-0.00456 0-0.0052-0.00604-0.02312-0.011124-0.03312a0.017616 0.017616 0 0 1-0.00161-0.00668c0-0.00195-8.137e-4 -0.00408-0.00182-0.00468-1e-3 -6.22e-4 -0.00182-0.00592-0.00182-0.0118s8.137e-4 -0.0112 0.00182-0.0118c0.00103-6.268e-4 0.00182-0.00928 0.00182-0.01976 0-0.0192-0.00295-0.02984-0.00989-0.0356-0.00157-0.00129-0.00284-0.00326-0.00284-0.00428 0-0.00262-0.00924-0.0122-0.01176-0.0122-0.00255 0-0.024604-0.0222-0.024604-0.02476 0-0.00107-0.00159-0.00344-0.00353-0.0052s-0.00405-0.0056-0.00469-0.00848c-6.351e-4 -0.00296-0.00191-0.00572-0.00283-0.00628-9.224e-4 -5.756e-4 -0.00168-0.00344-0.00168-0.00628 0-0.00296-8.163e-4 -0.00576-0.00182-0.00636-1e-3 -6.164e-4 -0.00183-0.00252-0.00184-0.0042-2.4e-5 -0.0033-0.00949-0.02292-0.013292-0.02756-0.00126-0.00154-0.00337-0.00532-0.0047-0.00824a0.11573 0.11573 0 0 0-0.00396-0.00816 0.25029 0.25029 0 0 1-0.00472-0.00908c-0.00174-0.00354-0.00585-0.01112-0.00913-0.017-0.00328-0.00584-0.00597-0.01176-0.00597-0.0132 0-0.0014-8.138e-4 -0.00256-0.00181-0.00256-1e-3 0-0.00182-0.00242-0.00182-0.0054 0-0.00302-7.244e-4 -0.0058-0.00163-0.00636-8.933e-4 -5.556e-4 -0.00205-0.00412-0.00258-0.00784-0.00211-0.01508-0.00977-0.041784-0.01318-0.045928-0.00157-0.00192-0.00245-0.01424-0.00292-0.0413-4.781e-4 -0.0274-0.00132-0.03924-0.00291-0.04082-0.00272-0.00275-0.00313-0.03348-4.635e-4 -0.03516 0.00309-0.00192 0.00899 0.00259 0.012568 0.00956 0.0019 0.00376 0.00518 0.00832 0.00728 0.01024 0.00211 0.0019 0.00383 0.0044 0.00383 0.0056 0 0.00117 0.00205 0.00408 0.00455 0.0064 0.0025 0.00234 0.00455 0.00524 0.00455 0.00636 0 0.00236 0.00941 0.01184 0.011748 0.01184 8.451e-4 0 0.00585 0.00394 0.011108 0.00868 0.012148 0.011 0.02918 0.02408 0.031268 0.02408 8.862e-4 0 0.00353 0.00205 0.00587 0.00452 0.00236 0.00252 0.0052 0.00452 0.00634 0.00452s0.00442 0.00246 0.0073 0.00548c0.00287 0.00304 0.00595 0.00548 0.00682 0.00548 8.815e-4 0 0.00429 0.00204 0.00757 0.00452 0.00327 0.00252 0.00658 0.00452 0.00734 0.00452 7.606e-4 0 0.00492 0.00238 0.00926 0.00536 0.010752 0.00728 0.016692 0.0098 0.039928 0.01716 0.044687 0.01416 0.060613 0.0174 0.092731 0.0188 0.024896 0.00107 0.057172-0.00254 0.067653-0.00756a0.53864 0.53864 0 0 1 0.012352-0.00568c0.00724-0.00324 0.035408-0.02908 0.035504-0.0326 2.41e-5 -0.00103 0.00371-0.0058 0.00818-0.01064 0.00448-0.0048 0.00813-0.00932 0.00813-0.01 0-6.952e-4 0.00285-0.00452 0.00633-0.00852 0.00348-0.00404 0.00634-0.00788 0.00636-0.00872 2.41e-5 -8.032e-4 0.00248-0.00412 0.00548-0.00728 3e-3 -0.00324 0.00545-0.00668 0.00546-0.00776 0-0.00107 0.00205-0.00394 0.00456-0.0062 0.0025-0.00237 0.00455-0.00528 0.00455-0.0064 0-0.00117 0.00164-0.00365 0.00364-0.00544 2e-3 -0.00181 0.00363-0.00428 0.00363-0.00556 0-0.00122 0.00115-0.00324 0.00255-0.00432 0.0014-0.00116 0.00472-0.00636 0.00738-0.0116s0.00638-0.01196 0.00831-0.01492c0.00192-0.00305 0.0064-0.01116 0.00996-0.01816 0.00358-7e-3 8e-3 -0.0152 0.00983-0.01816 0.00732-0.012 0.016512-0.0286 0.016512-0.02992 0-7.5e-4 0.00164-0.00289 0.00364-0.00464 2e-3 -0.00181 0.00363-0.00416 0.00363-0.00516s0.00205-0.00448 0.00455-0.00776c0.0025-0.0033 0.00455-0.0067 0.00455-0.00766 0-9.131e-4 0.00164-0.00317 0.00363-5e-3 2e-3 -0.00181 0.00364-0.00422 0.00364-0.00542 0-0.00115 0.00581-0.00776 0.012924-0.01474 0.0071-0.00698 0.015004-0.014884 0.017568-0.01768 0.00424-0.0045 0.00582-0.00503 0.01762-0.00503 0.00714 0 0.013752 7.431e-4 0.014696 0.00165 9.538e-4 9.057e-4 0.0048 0.00204 0.00858 0.00254 0.00376 4.825e-4 0.00804 0.00186 0.00947 0.00311 0.00328 0.00275 0.024812 0.00162 0.033688-0.00173 0.0035-0.00132 0.011192-0.00471 0.01708-0.00758 0.00589-0.00292 0.011756-0.00524 0.01302-0.00524 0.00128 0 0.0026-6.636e-4 0.00293-0.00147 0.00109-0.0027 0.027664-0.01474 0.036972-0.01676 0.0066-0.00146 0.015792-0.00147 0.033636-4.92e-5 0.013504 0.00109 0.031088 0.00231 0.039092 0.00275 0.020692 0.00105 0.039692 0.0039 0.055457 0.00815 0.0075 0.00205 0.017316 0.00464 0.021816 0.00581 0.0045 0.00115 0.01186 0.00379 0.016364 0.00574 0.00451 0.00199 0.00983 0.00425 0.01182 0.00507 0.00588 0.00229 0.032308 0.014492 0.037552 0.017364 0.00266 0.00144 0.00597 0.00264 0.00736 0.00264 0.0014 0 0.00356 0.00102 0.0048 0.00227 0.00126 0.00125 0.00285 0.00234 0.00354 0.00244 0.00147 1.69e-4 0.00628 2e-3 0.014 0.00532a0.16186 0.16186 0 0 0 0.012732 0.00453c4e-3 0.00124 0.0087 0.00304 0.010432 0.0039 0.00173 8.809e-4 0.00516 0.00159 0.00761 0.00159 0.00246 0 0.00497 8.207e-4 0.00559 0.00182 6.761e-4 0.00109 0.01272 0.00181 0.030008 0.00181s0.029324 7.374e-4 0.030008 0.00182c6.641e-4 0.00109 0.012712 0.00182 0.03 0.00182s0.029324-7.249e-4 0.03-0.00182c6.156e-4 -1e-3 0.00477-0.00182 0.00922-0.00182 0.00446 0 0.00952-7.25e-4 0.011252-0.00161 0.00174-8.887e-4 0.00561-0.00272 0.00861-0.00407 3e-3 -0.00134 0.00977-0.00518 0.015028-0.0084 0.00527-0.00333 0.010228-0.00595 0.011016-0.00595 7.848e-4 0 0.0042-0.00292 0.00759-0.00638 0.00339-0.00354 0.00706-0.00638 0.00814-0.00638 0.0025 0 0.020944-0.01856 0.020944-0.02112 0-0.00103 0.00225-0.00407 5e-3 -0.0067 0.00275-0.00267 0.00632-0.00751 0.00794-0.010844 0.0105-0.021436 0.019792-0.045405 0.019792-0.051113 0-0.00229 7.847e-4 -5e-3 0.00175-0.00592 9.611e-4 -9.658e-4 0.00266-0.00783 0.00378-0.01538 0.00111-0.00755 0.00284-0.0163 0.00382-0.01956 0.00103-0.00344 0.00127-0.012012 5.723e-4 -0.019984-0.00138-0.01584 7.486e-4 -0.026648 0.00641-0.032704 0.00202-0.00216 0.00367-0.0044 0.00367-0.00514 0-6.402e-4 0.00374-0.00539 0.00833-0.01042 0.00587-0.00656 0.00806-0.010384 0.00743-0.012968a0.51505 0.51505 0 0 0-0.00376-0.013744c-0.00157-0.00553-0.00287-0.012472-0.00288-0.015484-2.41e-5 -0.00602 0.00442-0.028668 0.00618-0.031536 6.11e-4 -9.899e-4 0.00116-0.011056 0.00121-0.022464 1.209e-4 -0.022464-9.658e-4 -0.026148-0.010824-0.036972-0.00312-0.00347-0.00568-0.00698-0.00568-0.00776 0-8.327e-4 -0.00144-0.00317-0.00319-0.0051-0.00175-0.00194-0.00626-0.00964-0.010024-0.017148l-0.00684-0.013608 2.42e-5 -0.038544c2.41e-5 -0.021224 7.655e-4 -0.04043 0.00167-0.042737 0.00263-0.0067 0.00584-0.040519 0.00606-0.063728 1.93e-4 -0.019596 4.782e-4 -0.021364 0.00361-0.021364 0.00187 0 0.00562 0.00205 0.00831 0.0045 0.0027 0.00251 0.00593 0.0045 0.0072 0.0045 0.00126 0 0.00229 7.251e-4 0.00229 0.00161 0 8.865e-4 0.00266 0.00304 0.00591 0.00461 0.00325 0.00165 0.00959 0.00585 0.014092 0.00929 0.00451 0.00351 0.00941 0.00684 0.010908 0.00755 0.0015 6.453e-4 0.00519 0.00301 0.00818 0.00514a0.08935 0.08935 0 0 0 0.012192 0.00709c0.0037 0.00172 0.00779 0.00415 0.0091 0.00542 0.00389 0.00376 0.053851 0.028596 0.057413 0.028596 0.00182 0 0.00408 7.19e-4 0.00504 0.00159 0.00223 0.00205 0.02204 0.00943 0.028564 0.010632 0.00276 5.064e-4 0.00548 0.00165 0.00604 0.00254 5.432e-4 8.816e-4 0.00295 0.00161 0.00536 0.00161a0.027952 0.027952 0 0 1 0.00852 0.00164c0.00768 0.00311 0.035 0.011164 0.041452 0.012368 0.0035 6.446e-4 0.02724 0.0017 0.052728 0.00234 0.044232 0.00112 0.061464 0.00304 0.086284 0.00932 0.00876 0.00224 0.0216 0.00507 0.0292 0.00638 3e-3 5.237e-4 0.00708 0.00165 0.00912 0.00251 2e-3 8.565e-4 0.00692 2e-3 0.01092 0.00256 0.00399 5.421e-4 0.013 0.0023 0.02 0.00394 7e-3 0.0016 0.016 0.00333 0.02 0.00386 4e-3 4.823e-4 0.00892 0.00159 0.01092 0.00246 2e-3 8.639e-4 0.00772 0.00207 0.01272 0.0027 5e-3 6.041e-4 0.0132 0.00187 0.01816 0.00289 5e-3 9.542e-4 0.01604 0.0027 0.02456 0.00382s0.01708 0.00278 0.01908 0.00361c2e-3 8.505e-4 0.00836 0.00199 0.01408 0.00254l0.02092 0.00194c0.00576 5.429e-4 0.01208 0.00175 0.01408 0.0027 2e-3 9.227e-4 0.00976 0.00204 0.01728 0.00249 0.00748 4.462e-4 0.0218 0.00217 0.0318 0.0039 0.01 0.00167 0.02512 0.00344 0.03364 0.0039 0.00852 4.462e-4 0.01708 0.00156 0.01908 0.00249 2e-3 9.185e-4 0.0118 0.00208 0.0218 0.00259 0.050676 0.00256 0.07258 0.00578 0.086512 0.01272 0.00322 0.00161 0.00776 0.00298 0.01004 0.00298 0.0023 0 0.00468 8.147e-4 0.00528 0.00181 0.00145 0.00237 0.00944 0.00237 0.01092 0 6.156e-4 -9.946e-4 0.0058-0.00181 0.01156-0.00181 0.00572 0 0.01124-7.678e-4 0.01216-0.0017 9.464e-4 -9.351e-4 0.00952-0.0021 0.019-0.00262a0.5798 0.5798 0 0 0 0.067276-0.00755c0.00952-0.00163 0.02096-0.00344 0.02544-0.00394 0.00452-5.025e-4 0.00984-0.00163 0.01184-0.00251 2e-3 -8.819e-4 0.00772-0.00198 0.01272-0.00244 0.01936-0.0018 0.041956-0.00524 0.044976-0.0068 0.00174-9.053e-4 0.01416-0.00164 0.0276-0.00164 0.01436 0 0.02488-7.526e-4 0.0256-0.00182 6.152e-4 -1e-3 0.00872-0.00182 0.0182-0.00182 0.00944 0 0.01756-8.135e-4 0.0182-0.00182 6.228e-4 -9.957e-4 0.00528-0.00181 0.0104-0.00181 0.00508 0 0.01184-7.849e-4 0.01488-0.00175 0.00308-9.538e-4 0.01252-0.00337 0.02104-0.00535a1.0921 1.0921 0 0 0 0.03576-0.00917c0.01948-0.00542 0.0216-0.0056 0.051816-0.00521 0.02252 3.019e-4 0.03268-2.175e-4 0.03548-0.00183 0.0022-0.00125 0.01012-0.00226 0.0176-0.00226 0.00752 0 0.01416-8.213e-4 0.01476-0.00182 6.16e-4 -1e-3 0.00272-0.00182 0.00468-0.00182 0.00194 0 0.00354-8.135e-4 0.00354-0.00181 0-1e-3 0.00143-0.00188 0.00318-0.00196 0.00175-7.3e-5 0.00564-0.00169 0.00864-0.00365a0.088601 0.088601 0 0 1 0.00984-0.00542c0.00238-0.00104 0.00612-0.00347 0.0082-0.00539 0.01964-0.017576 0.03564-0.031008 0.037-0.031008 9.056e-4 0 0.00358-0.00205 0.00596-0.0045 0.00236-0.00251 0.0052-0.0045 0.00648-0.0045 0.00121 0 0.00316-0.00118 0.00444-0.00264 0.00183-0.0022 0.0082-0.00581 0.0274-0.015696 0.00784-0.00407 0.02728-0.01258 0.02852-0.012616 8.084e-4 -5.9e-6 0.00548-0.00205 0.0104-0.0045 0.00488-0.00251 0.00996-0.0045 0.01116-0.0045 0.00208 0 0.02-0.0074 0.02672-0.011056 0.00173-9.351e-4 0.00496-0.0017 0.00736-0.0017 0.00232 0 0.00492-7.015e-4 0.00596-0.00156 0.00368-0.00337 0.046552-0.014776 0.055288-0.014776 0.00292 0 0.0058-7.285e-4 0.00636-0.00163 5.484e-4 -8.861e-4 0.00412-0.00203 0.00788-0.00254 0.00736-9.773e-4 0.03604-0.00766 0.045144-0.010452 0.00306-9.606e-4 0.00852-0.00174 0.01216-0.00174 0.00362 0 0.00704-8.135e-4 0.00776-0.00181 6.236e-4 -1e-3 0.00342-0.00182 0.00628-0.00182 0.00282 0 0.00812-0.00122 0.01168-0.00275 0.00358-0.0015 0.0102-0.00275 0.01468-0.00275 0.00452 0 0.00864-8.203e-4 0.00924-0.00182 6.236e-4 -9.971e-4 4e-3 -0.00181 0.0074-0.00181 0.00346 0 0.00776-7.364e-4 0.00944-0.00163 0.00174-8.993e-4 0.01296-0.00471 0.02496-0.00851 0.012-0.00379 0.02508-0.00825 0.02912-0.00992a0.90099 0.90099 0 0 1 0.02728-0.010844c2e-3 -7.484e-4 0.00776-0.00327 0.01272-0.00553a0.4847 0.4847 0 0 1 0.01272-0.0056c0.01152-0.00461 0.03008-0.01382 0.03636-0.018072a0.12618 0.12618 0 0 1 0.014-0.00794c0.00368-0.00171 0.00728-4e-3 8e-3 -0.00507 6.644e-4 -0.00107 0.00376-0.0032 0.00684-0.00453 0.00312-0.00142 0.00936-0.00546 0.01388-0.0089 0.00456-0.00354 0.01-0.00712 0.01208-0.00801 0.00216-9.414e-4 0.00452-0.00256 5e-3 -0.00365 6.4e-4 -0.00103 0.00404-0.0033 0.00744-0.00489 0.00346-0.00164 0.00632-0.00376 0.00632-0.00461 0-8.862e-4 0.00159-0.00161 0.00354-0.00161 0.00194 0 0.00408-8.38e-4 0.00468-0.00186 6.272e-4 -0.00102 0.01044-0.00642 0.02188-0.012012 0.0114-0.0056 0.02168-0.011268 0.0228-0.012684 0.00116-0.0014 0.00302-0.00255 0.00424-0.00256 0.00112-6.4e-6 5e-3 -0.00289 0.00872-0.00634 0.00368-0.00358 0.0074-0.00634 0.00828-0.00634 8.568e-4 0 0.00464-0.00287 0.00832-0.00638 0.00372-0.00358 0.0074-0.00634 0.00824-0.00634 8.16e-4 0 0.00472-0.00269 0.00864-0.00595 0.00836-0.00701 0.02592-0.016404 0.03624-0.019488 0.00672-0.00199 0.01472-0.00311 0.047276-0.00656 0.01252-0.00133 0.02404-0.00599 0.02688-0.010948 8.028e-4 -0.00139 0.00222-0.00252 0.00314-0.00252 9.308e-4 0 0.00608-0.00272 0.01128-0.00602 0.00524-0.00337 0.01488-0.00868 0.0214-0.011868 0.00648-0.00323 0.01304-0.00656 0.01456-0.00748 0.00684-0.00415 0.048588-0.02374 0.050536-0.02374 0.00121 0 0.0022-8.135e-4 0.0022-0.00182 0-1e-3 0.00124-0.00182 0.00276-0.00182 0.00151 0 0.00424-7.243e-4 0.00596-0.0016 0.00173-8.815e-4 0.01584-0.00786 0.03132-0.015556 0.01552-0.00769 0.03308-0.016724 0.03908-0.020056 0.00604-0.0034 0.01684-0.00908 0.02404-0.01272 0.0072-0.00368 0.0136-0.00737 0.01416-0.00829 5.672e-4 -9.247e-4 0.00412-0.00307 0.0078-0.00479 0.00368-0.00171 0.01104-0.00581 0.01632-0.00913 0.00524-0.00333 0.01028-0.00599 0.01108-0.00599 8.26e-4 0 0.00298-0.00163 0.00476-0.00368 0.00181-2e-3 0.00476-0.00368 0.00664-0.00368 0.00185 0 0.00336-7.848e-4 0.00336-0.00174 0-9.457e-4 0.00306-0.00314 0.0068-0.00482a0.088807 0.088807 0 0 0 0.01224-0.00705 0.090014 0.090014 0 0 1 0.012-0.00698c0.00362-0.00168 0.0076-0.00429 0.00884-0.00581 0.00127-0.00152 0.00332-0.00276 0.00464-0.00276 0.00127 0 0.00468-0.00122 0.00752-0.00272 7e-3 -0.00372 0.02588-0.00372 0.02732-1.21e-5 0.00119 0.00311 0.00648 0.00358 0.01112 9.66e-4 0.00412-0.00227 0.01984-0.00734 0.02288-0.00734 0.00868 0 0.03936-0.021968 0.03936-0.028164 0-0.00248 0.01496-0.017256 0.01748-0.017256 0.00103 0 0.00428-0.00245 0.00704-0.00549 0.00288-3e-3 0.00624-0.00549 0.0074-0.00549 0.00119 0 0.0033-0.00135 0.00468-0.00301 0.00137-0.00166 0.00824-0.00755 0.01524-0.013036 0.00696-0.00556 0.0152-0.012328 0.0182-0.015024 0.0096-0.00878 0.02844-0.024272 0.0322-0.0264 0.00197-0.00113 0.00624-0.00457 0.00944-0.00772 0.0032-0.00312 0.00672-0.0057 0.00784-0.0057 0.00108 0 0.00296-0.00121 0.00424-0.00269 0.00122-0.00148 0.00448-0.00382 7e-3 -0.00521 0.00824-0.00432 0.01368-0.00751 0.019-0.011056 0.00896-0.00606 0.02316-0.00978 0.03004-0.00786 0.00624 0.0017 0.02864 9.854e-4 0.040288-0.00129 0.00348-6.81e-4 0.01044-0.00314 0.01544-0.00546 0.00496-0.00232 0.01292-0.00595 0.0176-0.00801 0.00468-0.00209 9e-3 -0.00457 0.00964-0.00556 5.916e-4 -9.612e-4 0.0022-0.00132 0.00354-7.922e-4 0.00137 5.24e-4 0.00304 1.204e-4 0.00368-9.294e-4 6.392e-4 -0.00104 0.00632-0.0044 0.01244-0.00755 0.01744-0.00875 0.02544-0.013184 0.03164-0.01764 0.00312-0.00225 0.00656-0.00407 0.00752-0.00407 9.664e-4 0 0.00278-0.00118 4e-3 -0.00263 0.0012-0.00144 0.00808-0.00563 0.01524-0.00931 0.00712-0.00368 0.01416-0.00758 0.01552-0.00868 0.00334-0.00272 0.00844-0.00549 0.04298-0.023692 0.00492-0.00263 0.01152-0.00479 0.0144-0.0048h0.00528l-0.00124 0.030488c-6.88e-4 0.01676-0.00212 0.03412-0.0032 0.038636a0.15881 0.15881 0 0 0-0.0029 0.017256c-5.028e-4 5e-3 -0.00165 0.00986-0.00256 0.010844-9.06e-4 9.464e-4 -0.00165 0.00331-0.00165 0.00524 0 0.00194-0.00572 0.00912-0.01272 0.016048-0.00696 0.00687-0.01272 0.013716-0.01272 0.0152 0 0.0015-6.808e-4 0.00272-0.00151 0.00272-8.328e-4 0-0.00266 0.00225-0.00412 5e-3 -0.00138 0.00275-0.00342 0.00617-0.00464 0.00772-0.00182 0.00232-0.0138 0.024236-0.02204 0.040267-0.00135 0.00264-0.00366 0.00585-0.00512 0.00705-0.00148 0.00123-0.00276 0.00315-0.00278 0.00429-7.28e-5 0.00252-0.00896 0.01226-0.01376 0.014916-0.01448 0.00829-0.02136 0.010984-0.03436 0.0135a160.26 160.26 0 0 1-0.02044 4e-3c-0.01016 0.00196-0.033 0.00956-0.042288 0.014136-0.0168 0.00822-0.0196 0.00992-0.0252 0.015272-0.00276 0.00263-0.00576 0.00475-0.00668 0.00479-9.42e-4 6.4e-6 -0.00472 0.00287-0.00844 0.0063-0.00368 0.00351-0.00756 0.00631-0.00852 0.00631-9.904e-4 0-0.0042 0.00189-0.00688 0.00422-0.00286 0.00231-0.00976 0.00638-0.01532 0.00908-0.01452 0.00701-0.01984 0.014352-0.01984 0.0275 0 0.0044-8.168e-4 0.0086-0.00181 0.00921-1e-3 6.162e-4 -0.00182 0.0068-0.00182 0.013608 0 0.00691-7.124e-4 0.012968-0.00158 0.0135-8.696e-4 5.435e-4 -0.00208 0.00358-0.00274 0.00666-0.00133 0.00666-0.01812 0.024984-0.02424 0.0265-0.0023 5.794e-4 -0.0042 0.00178-0.0042 0.00268 0 8.936e-4 -0.00143 0.00163-0.00316 0.00163-0.00175 6.4e-6 -0.00548 0.00124-0.0084 0.00273-0.00288 0.00149-0.00668 0.00272-0.00852 0.00272-0.00182 0-0.00384 8.131e-4 -0.00452 0.00182-6.152e-4 1e-3 -0.00272 0.00182-0.00468 0.00182-0.00195 0-0.00696 0.00157-0.01128 0.00358-0.00432 0.00191-0.01096 0.0044-0.015 0.0057-0.00404 0.00121-0.00856 0.0034-0.0102 0.00471-0.00158 0.00138-0.0033 0.00207-0.00384 0.00155-5.232e-4 -5.322e-4 -0.00199 2.898e-4 -0.00324 0.00181-0.00127 0.00153-0.00384 0.00278-0.00576 0.00278-0.00187 0-0.0034 8.14e-4 -0.0034 0.00181 0 1e-3 -0.00153 0.00182-0.0034 0.00182-0.00188 0-0.00452 0.00123-0.00568 0.00272-0.00125 0.0015-0.00326 0.00273-0.00456 0.00273-0.00122 0-0.00372 0.00164-0.00552 0.00372-0.00181 2e-3 -0.00424 0.00372-0.00524 0.00372-0.0011 1.24e-5 -0.00568 0.00372-0.01016 0.00808-0.00456 0.0044-0.00912 0.00812-0.01036 0.00815-0.00119 4.89e-5 -0.01044 0.00825-0.0206 0.018248-0.01016 0.01-0.0194 0.018168-0.02064 0.018168s-0.00496 0.00287-0.00844 0.00634c-0.0034 0.00354-0.00704 0.00634-0.00824 0.00634-0.00113 0-4e-3 0.00205-0.00636 0.00453-0.00236 0.0025-0.00516 0.00453-0.00636 0.00453-0.00113 0-0.00366 0.00147-0.0056 0.00333-0.00193 0.00181-0.00476 0.00386-0.00628 0.0045-0.0015 6.776e-4 -0.00604 0.00333-0.01 0.00574-0.01884 0.011552-0.06312 0.033804-0.06734 0.033804-0.00121 0-0.00322 0.00121-0.00452 0.00272-0.00123 0.00149-0.00288 0.00231-0.00368 0.00183-0.00142-8.819e-4 -0.03848 0.017464-0.043616 0.021612-0.0015 0.00121-0.00644 0.00407-0.01088 0.0063-0.00996 0.00503-0.01864 0.011164-0.02764 0.019488-0.00372 0.00351-0.0074 0.00624-0.0082 0.00624-7.896e-4 6e-6 -0.00828 0.00656-0.0166 0.014564-0.00836 0.00797-0.0158 0.014528-0.01664 0.014528-8.092e-4 0-0.00764 0.00574-0.01508 0.01272-0.00752 0.00701-0.0144 0.01272-0.01532 0.01272-0.00206 0-0.0346 0.033732-0.03964 0.041036-0.00428 0.00617-0.01 0.018424-0.01 0.021332 0 0.00365-0.00776 0.017932-0.01192 0.022072-0.0023 0.00229-0.00684 0.00606-0.0102 0.00843-0.016 0.011236-0.02724 0.024272-0.03528 0.04094-0.00452 0.00917-0.00808 0.017612-0.00808 0.018776 0 0.00606-0.02244 0.023776-0.03016 0.023776-0.00318 0-0.01712 0.00769-0.01712 0.00943 0 8.139e-4 -0.00133 0.00149-0.00294 0.00149-0.00162 0-0.00568 0.00225-9e-3 0.00503-0.01108 0.00911-0.01744 0.014068-0.02156 0.016796-0.01592 0.010632-0.0212 0.013892-0.0292 0.018208a0.13701 0.13701 0 0 1-0.01908 0.00808c-0.00548 0.00177-0.01144 0.00397-0.01316 0.00479-0.00173 8.806e-4 -0.00704 0.0016-0.01192 0.0016-0.0048 0-0.00956 7.36e-4 -0.01048 0.00163-9.536e-4 9.058e-4 -0.00492 0.00203-0.00896 0.00254-0.00796 9.653e-4 -0.0222 5e-3 -0.03092 0.00868-3e-3 0.00127-0.00664 0.00256-0.0082 0.00289-0.00148 2.892e-4 -0.00298 0.00139-0.00334 0.00244-3.496e-4 0.00106-0.00177 0.00192-0.00314 0.00192-0.00366 0-0.01456 0.010064-0.01932 0.017856a0.092743 0.092743 0 0 1-0.00916 0.012192c-0.00278 0.00304-5e-3 0.00634-5e-3 0.00744 0 0.00108-0.00206 0.00394-0.0046 0.0062-0.0025 0.00236-0.0046 0.00532-0.0046 0.00648 0 0.00121-0.00125 0.00327-0.00278 0.00446-0.00318 0.00264-0.02992 0.056637-0.02992 0.0604 0 0.00136-7e-4 0.0033-0.00155 0.00422-8.564e-4 9.476e-4 -0.0038 0.00908-0.00656 0.018072-0.00274 9e-3 -0.00576 0.018208-0.0066 0.020552-0.00226 0.00578-0.00212 0.052594 1.936e-4 0.054011 9.948e-4 6.159e-4 0.00182 5e-3 0.00183 0.0096 1.24e-5 0.010632 0.00772 0.047952 0.01288 0.062852 0.00556 0.015872 0.01696 0.037404 0.02344 0.044218 0.00302 0.00323 0.00548 0.00668 0.00548 0.00772 0 0.00106 0.00368 0.0058 0.0082 0.01056 0.00456 0.00476 0.0082 0.00948 0.0082 0.01056 6.4e-6 0.00106 0.00288 0.00468 0.0064 0.00808 0.0035 0.00344 0.00636 0.00712 0.00636 0.00816 0 0.0011 0.00368 0.00564 0.0082 0.01 0.00456 0.0044 0.0082 0.00888 0.0082 0.00992s0.00456 0.00668 0.01 0.01244c0.00548 0.00576 0.01 0.01152 0.01 0.0128 0 0.00127 0.00368 0.00592 0.0082 0.01036 0.00456 0.00436 0.0082 0.00888 0.0082 0.01 0 0.00108 0.00456 0.0064 0.01 0.0118 0.00548 0.00544 0.01004 0.01068 0.01004 0.01176 6.4e-6 0.00103 0.00572 0.00764 0.01268 0.0146 0.00688 7e-3 0.01268 0.01352 0.01272 0.01456 4.88e-5 9.948e-4 0.00548 0.00756 0.01208 0.01452 0.0066 7e-3 0.01416 0.01556 0.0168 0.019 0.00264 0.00348 0.00976 0.01148 0.01572 0.01792 0.00608 0.0064 0.01172 0.01304 0.0126 0.01468 9.372e-4 0.00165 0.00456 0.00604 0.00808 0.00984 0.00348 0.0038 0.00776 0.00908 0.0094 0.0118 0.00169 0.00278 0.0048 0.00656 0.00692 0.00852 0.00214 0.00191 0.00396 0.00432 0.00396 0.00548 2.44e-5 0.00109 0.00508 0.00744 0.0114 0.01408 0.01032 0.011 0.02108 0.02452 0.02596 0.03256 0.00104 0.00172 3e-3 0.00444 0.00448 0.00612 0.00314 0.00382 0.011 0.0192 0.011 0.0216 0 9.772e-4 0.00192 0.00596 0.00432 0.01104 0.0068 0.01484 0.0126 0.03228 0.01352 0.040636l7.972e-4 0.00768h-0.047372c-0.02964 0-0.047768-6.828e-4 -0.048484-0.00182-6.156e-4 -9.944e-4 -0.00636-0.00181-0.01272-0.00181-0.01124 0-0.01728-0.00177-0.03176-0.0092-0.01828-0.00944-0.03428-0.01628-0.03812-0.01628-0.00192 0-0.00396-7.244e-4 -0.00456-0.00163-0.0023-0.00376-0.042216-0.00692-0.051904-0.00412-0.00352 0.00101-0.01112 0.00292-0.01692 0.00412-0.00584 0.00124-0.01092 0.00302-0.01152 0.0038-5.144e-4 8.336e-4 -0.00222 0.00151-0.0038 0.00151-0.00544 0-0.0324 0.01452-0.040408 0.0218-0.00452 0.00408-0.00868 0.00732-0.00948 0.00732-7.856e-4 0-0.00812 0.00636-0.01624 0.01412-0.0082 0.00772-0.01572 0.01444-0.01688 0.0148-0.00114 4.116e-4 -0.00492 0.0035-0.00844 0.0068-0.00352 0.00336-0.00728 0.00604-0.0084 0.00604-0.00109 1.2e-5 -0.00346 0.00163-0.0052 0.00364-0.00179 0.00198-0.00396 0.00324-0.00476 0.00272-8.132e-4 -5.064e-4 -0.00584 0.00118-0.01112 0.0038-0.00856 0.00416-0.01364 0.00584-0.02828 0.0094-0.00224 5.432e-4 -0.00684-3.256e-4 -0.01028-0.00194-0.0034-0.00162-0.00688-0.00302-0.00796-0.00302-9.42e-4 0-0.0032-0.00163-0.00492-0.00368-0.0018-2e-3 -0.00424-0.00368-0.00524-0.00368-0.00109 0-0.00464-0.00246-0.00784-0.00548-0.0032-0.00304-0.0066-0.00548-0.0076-0.00548-9.784e-4 0-0.00412-0.0019-0.00684-0.0042a0.072905 0.072905 0 0 0-0.01152-0.00736 0.15805 0.15805 0 0 1-0.01184-0.00664c-0.00544-0.0035-0.043344-0.02236-0.06322-0.03152-0.0058-0.0027-0.01208-0.00484-0.01396-0.00484-0.00192 0-0.00392-6.76e-4 -0.00452-0.00151-5.144e-4 -8.328e-4 -0.00656-0.0026-0.01348-0.00394-0.01268-0.00238-0.0266-0.00185-0.042632 0.00167-0.00472 0.00105-0.01212 0.0027-0.01636 0.00364l-0.015 0.00336c-0.00404 8.744e-4 -0.00904 0.00256-0.01124 0.00376-0.00218 0.00118-0.00812 0.00214-0.01308 0.00214-0.00492 0-0.00964 8.216e-4 -0.01024 0.00182-6.348e-4 0.00103-0.0094 0.00182-0.02004 0.00182-0.0106 0-0.0194 7.904e-4 -0.02 0.00181-6.16e-4 1e-3 -0.00456 0.00182-0.0086 0.00182-0.00772 0-0.02528 0.00524-0.035 0.01036-0.00672 0.00362-0.02064 0.0166-0.02292 0.02152-9.176e-4 0.00199-0.00372 0.00696-0.00624 0.01092-0.0025 0.00404-0.00536 0.00892-0.0064 0.01092-9.952e-4 2e-3 -0.00388 0.00696-0.0064 0.01092-0.0025 0.00404-0.00496 0.00852-0.00564 0.01-5.872e-4 0.00151-0.00214 0.00524-0.00346 0.00816-0.00916 0.02096-0.0098 0.02436-0.01008 0.054208-1.456e-4 0.016-9.18e-4 0.0304-0.00174 0.032-0.00232 0.0044-0.00904 0.02808-0.00904 0.03164 0 0.00177 0.00232 0.00452 0.00508 0.00612 0.00736 0.0042 0.00992 0.01124 0.00876 0.02464-0.00105 0.01312-0.00266 0.02252-0.00476 0.02772-8.16e-4 0.00199-0.00296 0.00736-0.00472 0.0118-0.00181 0.00448-0.00456 0.0096-6e-3 0.01132a0.055053 0.055053 0 0 0-0.00468 0.00668c-0.00109 0.0019-0.00468 0.00732-0.00804 0.012-0.00776 0.01104-0.01124 0.02124-0.01128 0.03284-4.84e-5 0.01444-0.00282 0.016-0.02592 0.01464-0.01028-6.208e-4 -0.02388-0.00187-0.03012-0.00284-0.02048-0.00302-0.03752 0.0039-0.05568 0.0222-0.00704 0.0072-0.02176 0.01956-0.0326 0.02756-0.0108 0.00796-0.0228 0.0172-0.0266 0.0204-0.00376 0.0033-0.00796 0.00592-0.00912 0.00592-0.00127 0-0.00424 0.00204-0.00652 0.00452-0.00232 0.00252-0.0054 0.00452-0.00688 0.00452-0.00149 0-0.0032 8.144e-4 -0.00384 0.00181-6.152e-4 0.00101-0.00292 0.00183-0.00504 0.00184-0.00218 5.6e-6 -0.00636 0.00123-0.00916 0.00278-0.00286 0.00149-8e-3 0.00276-0.01128 0.00276-0.00332 0-0.00656 8.132e-4 -0.00712 0.00181-6.152e-4 1e-3 -0.00504 0.00182-0.01 0.00182-0.00484 0-0.0094 8.224e-4 -0.00996 0.00182-6.16e-4 1e-3 -0.00488 0.00182-0.00948 0.00182-0.00808 0-0.044324 0.01104-0.049144 0.01492-0.00126 0.00102-0.00228 0.00139-0.00228 8.208e-4 0-5.676e-4 -0.00388 6.156e-4 -0.00864 0.00264-0.00476 2e-3 -0.01028 0.00428-0.01228 0.00516-0.0226 0.00912-0.05216 0.0244-0.053332 0.02756-3.308e-4 8.924e-4 -0.00208 0.00163-0.00386 0.00163-0.0018 0-0.00428 0.00123-0.00552 0.00276-0.00124 0.0015-0.00328 0.00278-0.00456 0.00278-0.00126 0-0.00338 0.00131-0.00472 0.00298-0.00133 0.00161-0.00408 0.00372-0.00612 0.00452-0.00342 0.00152-0.0066 0.00344-0.02068 0.01204-0.01172 0.00728-0.01956 0.01292-0.02284 0.0166-0.0019 0.00214-0.00448 0.0039-0.00568 0.0039-0.00122 0-0.00324 0.00122-0.00448 0.00278-0.00124 0.0015-0.00416 0.00276-0.00648 0.00276s-0.00472 8.212e-4 -0.00536 0.00182c-6.156e-4 9.944e-4 -0.00432 0.00181-0.0082 0.00181s-0.00752 7.364e-4 -0.00808 0.00163c-5.556e-4 8.936e-4 -0.00408 0.00206-0.00784 0.0026-0.00376 5.24e-4 -0.01052 0.00184-0.015 0.00298-0.01748 0.0042-0.03392 0.00768-0.040468 0.00868-0.00376 5.356e-4 -0.00728 0.0017-0.00784 0.00262-5.48e-4 8.936e-4 -0.00212 0.00163-0.0035 0.00163-0.00386 0-0.02556 0.01048-0.02816 0.0136-0.00127 0.00153-0.00326 0.00284-0.00444 0.00284s-0.00492 0.00296-0.00832 0.00636c-0.0034 0.00354-0.0072 0.00636-0.00844 0.00636-0.00125 0-0.00448 0.00204-0.00716 0.00456-0.00436 0.00412-0.0064 0.00452-0.01872 0.00444-0.0076-7.2e-5 -0.01872-9.052e-4 -0.02472-0.00183a0.35199 0.35199 0 0 0-0.02272-0.00256 0.37805 0.37805 0 0 1-0.02364-0.0027c-0.0176-0.0027-0.051592-0.0044-0.086368-0.0044-0.02852 5.2e-6 -0.03876 0.00101-0.060916 6e-3 -0.0258 0.00584-0.03024 0.00684-0.03272 0.00784-0.0015 5.592e-4 -0.0064 0.00199-0.01092 0.00324-0.00452 0.00118-0.01064 0.00292-0.01364 0.0038a1.3849 1.3849 0 0 1-0.02272 0.00636c-0.01484 0.0034-0.02208 0.00548-0.02728 0.00788-0.0035 0.00164-0.0076 0.00318-0.00912 0.00326-0.00404 3.672e-4 -0.04034 0.01864-0.04454 0.02248-2e-3 0.0018-0.00464 0.00366-0.00588 0.00404-0.0029 9.012e-4 -0.0314 0.029-0.0314 0.03096 0 8.332e-4 -0.00388 6e-3 -0.00864 0.01144-0.01504 0.01708-0.01784 0.02168-0.02252 0.03716-0.00313 0.01036-0.00318 0.05004-7.24e-5 0.053144 0.00118 0.00117 0.00214 6e-3 0.00214 0.01076 0 0.00472 8.164e-4 0.00912 0.00181 0.0098 1e-3 6.156e-4 0.00182 0.0046 0.00182 0.00876 0 0.0084 0.00492 0.02348 0.01068 0.03264 0.0036 0.00576 0.00488 0.00836 0.01424 0.0286 0.00254 0.00552 0.00532 0.01144 0.0062 0.0132 0.00292 0.00572 0.0017 0.00856-0.00564 0.01324-0.0058 0.00372-0.00956 0.0046-0.01912 0.0046-0.00652 0-0.01328-7.444e-4 -0.01504-0.00165-0.0125-0.00656-0.020472-0.00772-0.045423-0.00664-0.02648 0.00116-0.036308 0.00298-0.049565 0.00876-0.012296 0.00548-0.014956 0.00644-0.020904 0.00772l-0.012728 0.00272c-0.00399 8.056e-4 -0.010128 0.0024-0.013628 0.00354-0.00875 0.0028-0.017328 0.00252-0.019892-5.792e-4z" fill="#ff9c27" stroke-width=".0060372"/>
  <g stroke-linecap="round" stroke-linejoin="round">
   <line x1="2.9343" x2="2.9343" y1="2.6552" y2="5.1542" stroke="#fff" stroke-width=".10866"/>
   <line x1="2.8943" x2="2.8943" y1="2.6552" y2="5.1542" stroke="#fff" stroke-width=".10866"/>
   <line x1="2.9059" x2="3.1845" y1="5.1494" y2="5.1494" stroke="#8d90ff" stroke-width=".062"/>
  </g>
  <g stroke="#fff" stroke-linecap="round" stroke-linejoin="round">
   <line x1="2.9171" x2="6.2966" y1="3.9004" y2="3.9004" stroke-width=".12637"/>
   <line x1="2.9154" x2="6.212" y1="4.5244" y2="4.5244" stroke-width=".12481"/>
   <line x1="2.9103" x2="5.9459" y1="2.6593" y2="2.6593" stroke-width=".11977"/>
   <line x1="2.8986" x2="3.9668" y1="3.283" y2="3.283" stroke-width=".11832"/>
  </g>
  <g transform="translate(-.085741 .15243)" stroke="#001b64" stroke-linecap="round" stroke-linejoin="round">
   <line x1="3.019" x2="6.0708" y1="4.9968" y2="4.9968" stroke-width=".061525"/>
   <line x1="3.019" x2="6.0664" y1="2.5053" y2="2.5053" stroke-width=".061482"/>
   <line x1="3.0233" x2="4.4863" y1="3.128" y2="3.128" stroke-width=".064004"/>
   <line x1="3.0223" x2="6.4048" y1="3.7506" y2="3.7506" stroke-width=".064773"/>
   <line x1="3.0216" x2="6.3345" y1="4.3733" y2="4.3733" stroke-width=".064103"/>
  </g>
  <g>
   <rect x="2.8655" y="2.6266" width=".099626" height="2.5529" ry=".031133" fill="#001b64" stroke-width=".62266"/>
   <path d="m4.0422 6.1281c-0.065147-7.738e-4 -0.13015-0.014219-0.19012-0.039703-0.071593-0.030276-0.13586-0.077509-0.18644-0.13651-0.05091-0.05921-0.087933-0.13026-0.10727-0.20592-0.01141-0.044476-0.016888-0.090486-0.016157-0.1364 0.0011-0.043379 0.013759-0.08629 0.035847-0.1236 0.033231-0.056515 0.086699-0.10003 0.14738-0.12418 0.040602-0.016257 0.08465-0.024052 0.12837-0.022232 0.043332 0.00196 0.086024 0.015844 0.12224 0.039704 0.042552 0.027758 0.076124 0.068453 0.09701 0.11464 0.01928 0.04243 0.028107 0.089506 0.025935 0.13604-0.00223 0.044027-0.016335 0.087309-0.04014 0.12439-0.027768 0.043435-0.06864 0.078392-0.11599 0.098821-0.038955 0.016895-0.082221 0.023947-0.1245 0.019764 0.037735 0.04089 0.08543 0.072902 0.13835 0.090438 0.033443 0.011208 0.068796 0.016466 0.10405 0.016027 0.029878-4.69e-5 0.059754-0.00434 0.088457-0.012631 0.044841-0.012913 0.086453-0.036116 0.12199-0.066239 0.050319-0.042551 0.088779-0.097848 0.11622-0.15747 0.00346-0.0075 0.00713-0.016027 0.00999-0.023075 0.00807-0.019864 0.015014-0.040179 0.020879-0.060799 2.05e-4 -7.036e-4 8.032e-4 -0.00288 0.00116-0.00415 0.00743-0.026872 0.013024-0.054245 0.016865-0.081858 8.2e-5 -6.973e-4 3.959e-4 -0.00296 5.67e-4 -0.00427 1.928e-4 -0.00138 3.073e-4 -0.00235 5.191e-4 -0.00403 0.00262-0.020214 0.00393-0.040563 0.00492-0.060912 0.00133-0.024813 0.00251-0.049636 0.00324-0.074475 3.51e-5 -0.00111 8.22e-5 -0.00316 1.219e-4 -0.00463 2.536e-4 -0.0097 4.208e-4 -0.019404 4.959e-4 -0.029107-7.1e-6 -9.216e-4 9.1e-6 -0.00299 1.08e-5 -0.00435 3.22e-5 -0.010865-3.12e-5 -0.02173-1.081e-4 -0.032595-9.3e-6 -0.00167-4.41e-5 -0.00415-6.32e-5 -0.00613-2.211e-4 -0.021608-7.036e-4 -0.043214-0.00144-0.064811-4.74e-5 -9.652e-4 -1.148e-4 -0.00299-1.699e-4 -0.00436-2.806e-4 -0.00796-6.351e-4 -0.015918-9.9e-4 -0.023875-3.94e-5 -9.216e-4 -1.503e-4 -0.00299-2.17e-4 -0.00435-0.00119-0.024194-0.00278-0.048368-0.00484-0.072504-0.057294 0.00899-0.11516 0.014385-0.17314 0.015967-0.034231 9.527e-4 -0.068533 2.666e-4 -0.10263-0.00299-0.07855-0.00728-0.15592-0.02691-0.2285-0.057845-0.078577-0.033425-0.15143-0.079898-0.21579-0.13594-0.093061-0.080922-0.16851-0.18132-0.22363-0.29147-0.066454-0.1327-0.10373-0.27984-0.10886-0.42814-0.00189-0.052514 4.85e-4 -0.1052 0.0076-0.15727 0.01063-0.078561 0.031837-0.15554 0.061267-0.2291 0.046973-0.11767 0.11406-0.22623 0.18888-0.32808 0.070419-0.095751 0.14781-0.18609 0.22607-0.27545 0.043568-0.049696 0.087444-0.099124 0.1308-0.149-0.024743-0.081794-0.04935-0.16372-0.068495-0.24704-0.01771-0.076369-0.03081-0.15378-0.039724-0.23166-0.013645-0.11903-0.018291-0.23892-0.018821-0.35867-1.816e-4 -0.024638 4.67e-5 -0.049291 0.00158-0.073889 0.00649-0.10993 0.032995-0.21863 0.077789-0.31922 0.047356-0.10658 0.11521-0.20402 0.1989-0.28526 0.031715-0.030864 0.065741-0.059329 0.10155-0.085328 0.013369-0.01079 0.031537-0.015562 0.048418-0.012004 0.010602 0.00214 0.020607 0.00729 0.028557 0.014587 0.039476 0.046468 0.073552 0.097279 0.10451 0.14973 0.040427 0.068837 0.075404 0.1408 0.10607 0.21448 0.033215 0.080094 0.061336 0.16234 0.0833 0.24623 0.018698 0.0719 0.033006 0.1451 0.039609 0.21916 0.0034 0.037973 0.00439 0.076164 0.00273 0.11426-0.00334 0.081835-0.018261 0.16308-0.043077 0.2411-0.034936 0.11028-0.08898 0.21366-0.15214 0.31027-0.062128 0.095068-0.13289 0.18413-0.20602 0.2709-0.014517 0.017217-0.029131 0.034351-0.043826 0.051417 0.049391 0.16122 0.091611 0.32452 0.13208 0.48818 0.014745-0.00139 0.029576-6.538e-4 0.044351-2.578e-4 0.071718 0.00278 0.14311 0.01676 0.21015 0.04254 0.073688 0.028182 0.14187 0.070519 0.20007 0.12375 0.07574 0.069071 0.13463 0.15612 0.17212 0.25143 0.042723 0.10829 0.058024 0.22757 0.042031 0.34299-0.012479 0.091025-0.044411 0.17927-0.092778 0.25737-0.052257 0.084633-0.12368 0.15734-0.20741 0.21104-0.043971 0.028248-0.091279 0.051303-0.14064 0.068486 0.00712 0.08715 0.011721 0.17458 0.01107 0.26204-4.868e-4 0.044602-0.00272 0.089162-0.00513 0.13369-0.00696 0.11021-0.03881 0.21915-0.094801 0.3145-0.040614 0.069094-0.094292 0.13101-0.15942 0.17802-0.050016 0.036208-0.1068 0.063232-0.16679 0.078074-0.034316 0.0085-0.069593 0.0132-0.10494 0.013805-0.00637-3.9e-6 -0.012749 1.86e-5 -0.019124-3.89e-5zm0.20073-1.0777c0.0018-5.1e-6 0.00426-2.75e-5 0.00565-2.43e-5 0.040011-4.443e-4 0.080018-0.00214 0.1199-0.00546 9.589e-4 -7.45e-5 0.00298-2.591e-4 0.00435-3.758e-4 0.017156-0.00151 0.034287-0.00335 0.05134-0.00577-0.00115-0.00986-0.00238-0.01972-0.00359-0.029577-1.626e-4 -0.0012-4.246e-4 -0.0033-6.227e-4 -0.00484-6.725e-4 -0.00519-0.00136-0.010649-2e-3 -0.015573-0.010346-0.078388-0.022384-0.15655-0.0351-0.23458-8.219e-4 -0.00491-0.00171-0.010321-0.00255-0.015424-0.00905-0.054863-0.018542-0.10965-0.028336-0.16439-0.013931-0.077551-0.028595-0.1554-0.043867-0.23287-0.00913-0.046331-0.018585-0.093076-0.028227-0.13949-0.00183-0.0089-0.00364-0.017537-0.00552-0.026479-3.29e-4 -0.00151-2.23e-4 -0.00364-0.00233-0.00262-0.0061 8.898e-4 -0.012185 0.00192-0.018243 0.00307-6.725e-4 1.239e-4 -0.0029 5.623e-4 -0.00417 8.139e-4 -0.00539 0.00108-0.010745 0.00229-0.016087 0.00357-4.433e-4 1.233e-4 -0.00276 6.886e-4 -0.00394 9.825e-4 -0.048296 0.012227-0.094637 0.033923-0.1329 0.066101-0.034296 0.028663-0.061677 0.065807-0.077674 0.10762-0.013971 0.036201-0.019244 0.075621-0.015799 0.11425 0.00404 0.04753 0.020864 0.093584 0.046625 0.1336 0.030103 0.046977 0.071839 0.085722 0.11844 0.11603 0.00909 0.00594 0.018411 0.011505 0.027825 0.016909 0.0092 0.00905 0.017232 0.019644 0.021494 0.031942 0.00617 0.016979 0.00453 0.036263-0.00325 0.052444-0.010725 0.022918-0.032874 0.040564-0.058075 0.04435-0.00789 0.00127-0.016056 0.00109-0.023745-0.00122-0.014735-0.00411-0.028541-0.010932-0.041977-0.018132-0.03196-0.017486-0.061595-0.039012-0.089169-0.062765-0.067503-0.058361-0.12231-0.13218-0.15502-0.21545-0.021634-0.054815-0.033356-0.11345-0.035021-0.17233-0.00251-0.081371 0.014368-0.16324 0.048785-0.23701 0.031353-0.067469 0.077415-0.12808 0.13423-0.17613 0.05187-0.044029 0.11256-0.077389 0.17714-0.09866 0.011161-0.0037 0.022442-0.00704 0.033814-0.010025-0.00493-0.020296-0.00996-0.040824-0.014987-0.06122-0.025258-0.10211-0.051774-0.20434-0.080635-0.30566-0.0011-0.00384-0.00219-0.00767-0.00329-0.011501-0.08311 0.094295-0.16568 0.18931-0.24059 0.29034-0.02036 0.027445-0.040114 0.055341-0.059082 0.083767-6.787e-4 0.00101-0.00184 0.00276-0.0027 0.00407-0.013847 0.020872-0.027248 0.042041-0.040142 0.063515-4.978e-4 8.549e-4 -0.00153 0.00257-0.00223 0.00375-0.017212 0.028875-0.033446 0.058336-0.048495 0.088396-3.766e-4 7.839e-4 -0.00133 0.00268-0.00192 0.00389-0.031338 0.06316-0.057194 0.12916-0.075271 0.19735-1.547e-4 6.426e-4 -7.51e-4 0.00289-0.00108 0.00415-0.019752 0.07575-0.029645 0.15413-0.028577 0.23242 0.00112 0.063723 0.014119 0.12718 0.037972 0.18628 0.030311 0.075489 0.077772 0.14355 0.13563 0.20051 0.064551 0.06352 0.14182 0.11388 0.22552 0.14834 0.071336 0.029249 0.14774 0.047115 0.22496 0.048972 0.00418 9.81e-5 0.00836 1.315e-4 0.01254 1.517e-4zm0.32515-0.048796c0.00608-0.00267 0.012105-0.00545 0.018043-0.00842 6.289e-4 -3.086e-4 0.00261-0.00131 0.00376-0.00189 0.056016-0.02857 0.10474-0.070997 0.14137-0.12206 0.013085-0.018186 0.024647-0.03746 0.034624-0.057518 2.286e-4 -5.017e-4 0.00128-0.0026 0.00182-0.00372 0.029959-0.061752 0.044268-0.13089 0.041921-0.19945-0.00159-0.048833-0.011336-0.097348-0.028344-0.14313-1.776e-4 -4.933e-4 -0.00105-0.00279-0.0015-0.00399-0.027818-0.072964-0.074394-0.1388-0.13454-0.1887-0.01638-0.013686-0.034876-0.026804-0.052403-0.037502-0.050216-0.030753-0.10657-0.051155-0.16463-0.060716-0.00192-7.578e-4 -0.00215 1.38e-4 -0.00146 0.00188 0.025737 0.1229 0.049484 0.24621 0.071436 0.36984 0.02071 0.11701 0.039831 0.23431 0.055785 0.35207 0.00467 0.034552 0.00904 0.069145 0.012997 0.10379 3.73e-4 -1.589e-4 7.472e-4 -3.178e-4 0.00112-4.767e-4zm-0.45313-1.9974c0.068616-0.085147 0.13379-0.17348 0.18851-0.2683 0.032502-0.056323 0.061171-0.11495 0.084033-0.17586 2.96e-4 -8.281e-4 0.00104-0.0028 0.00151-0.00407 0.00185-0.00497 0.00364-0.00996 0.0054-0.014954 3.169e-4 -8.842e-4 9.838e-4 -0.00282 0.00144-0.00411 0.019606-0.056346 0.034-0.11455 0.042182-0.17366 1.091e-4 -7.659e-4 3.992e-4 -0.00296 5.778e-4 -0.00428 0.00258-0.019245 0.00449-0.03858 0.00577-0.057955 3.8e-5 -7.907e-4 1.825e-4 -0.00298 2.614e-4 -0.00432 2.113e-4 -0.00325 3.626e-4 -0.0065 5.413e-4 -0.00975 4.02e-5 -7.534e-4 1.346e-4 -0.00299 1.956e-4 -0.00431 4.694e-4 -0.010403 7.161e-4 -0.020814 8.219e-4 -0.031227-6.8e-6 -7.16e-4 1.06e-5 -0.00299 1.31e-5 -0.0043 2.67e-5 -0.014107 5.15e-5 -0.028213-2.28e-5 -0.042319-1.9e-6 -0.00101-3.01e-5 -0.00299-4.21e-5 -0.00437-2.729e-4 -0.037028-0.00255-0.074094-0.00827-0.1107-0.00294-0.01933-0.00671-0.038529-0.011093-0.05758-2.045e-4 -8.219e-4 -6.849e-4 -0.00291-9.962e-4 -0.00422-0.00598-0.025354-0.013052-0.050443-0.020862-0.075292-0.011217 0.00593-0.022269 0.012175-0.033152 0.018699-5.455e-4 3.452e-4 -0.00255 0.00155-0.00366 0.00223-0.00229 0.00138-0.00455 0.0028-0.00683 0.00421-5.531e-4 3.661e-4 -0.00253 0.0016-0.00362 0.0023-0.00143 8.966e-4 -2e-3 0.00126-0.00351 0.00224-0.00116 7.472e-4 -0.00283 0.00181-0.00347 0.00225-0.010174 0.00663-0.020174 0.013521-0.029988 0.020673-5.977e-4 4.545e-4 -0.00241 0.00177-0.00347 0.00256-0.024916 0.018387-0.048566 0.038483-0.070801 0.060034-5.264e-4 5.306e-4 -0.00214 0.00209-0.00308 0.00302-0.020499 0.020133-0.039738 0.041549-0.057592 0.064061-4.934e-4 6.1e-4 -0.00185 0.00235-0.00267 0.00339-0.062067 0.079185-0.10673 0.17193-0.12982 0.26987-0.00954 0.040301-0.015445 0.081459-0.017673 0.12281-2.04e-5 6.725e-4 -1.442e-4 0.00298-2.044e-4 0.00429-6.226e-4 0.012955-8.468e-4 0.025926-7.659e-4 0.038895 1.9e-6 7.784e-4 3.29e-5 0.00299 4.6e-5 0.00432 4.83e-5 0.00458 1.545e-4 0.00917 2.751e-4 0.01375 3.86e-5 9.402e-4 9.43e-5 0.00299 1.395e-4 0.00435 4.8e-5 0.00162 7.16e-5 0.00238 1.414e-4 0.0041 0.00102 0.027128 0.00324 0.054205 0.00634 0.081172 1.564e-4 0.00139 4.264e-4 0.00363 6.289e-4 0.00534 0.0069 0.057276 0.017637 0.11403 0.030517 0.17025 1.778e-4 7.971e-4 6.787e-4 0.00291 9.838e-4 0.00422 0.011366 0.049042 0.024408 0.097683 0.038485 0.14601 9.277e-4 -0.00115 0.00186-0.0023 0.00279-0.00344z" fill="#fff" stroke="#fff" stroke-width=".02"/>
   <path d="m4.0635 6.1073h-0.014944c-0.26899 0-0.48568-0.21918-0.48568-0.49066 0-0.14446 0.132-0.25654 0.27895-0.25654 0.1345 0 0.23661 0.11706 0.23661 0.25654 0 0.12951-0.1071 0.23661-0.23661 0.23661-0.027397 0-0.052304-0.00498-0.07721-0.014944 0.064757 0.097136 0.16936 0.16189 0.29141 0.16189h0.00996zm0.48568-1.076c0.16936-0.059776 0.28144-0.22416 0.28144-0.40847 0-0.22416-0.16438-0.44583-0.43088-0.47323 0.047323 0.22167 0.11955 0.60274 0.14944 0.88169zm-0.96389-0.57534c0 0.36115 0.35118 0.61519 0.65753 0.61519 0.00249 0 0.11706 0 0.20423-0.014944-0.017435-0.1594-0.072229-0.5056-0.15691-0.9066-0.19676 0.019925-0.30884 0.15193-0.30884 0.29639 0 0.10959 0.062266 0.22665 0.20174 0.30635 0.012453 0.012453 0.017435 0.024907 0.017435 0.03736 0 0.027397-0.024907 0.054794-0.054795 0.054794-0.03736 0-0.31382-0.15442-0.31382-0.46575 0-0.21918 0.14446-0.43337 0.39851-0.49066-0.034869-0.14446-0.072229-0.29141-0.11457-0.43587-0.2665 0.30137-0.53051 0.60523-0.53051 1.0037zm0.43836-1.3076c-0.072229-0.2391-0.12951-0.42341-0.12951-0.86177 0-0.28643 0.13699-0.55791 0.37111-0.72727 0.014944-0.012453 0.034869-0.012453 0.049813 0 0.16936 0.19925 0.33126 0.61021 0.33126 0.89166 0 0.35616-0.2142 0.63512-0.44832 0.9066 0.052304 0.16936 0.097136 0.34371 0.13948 0.51557 0.00498 0 0.017435-0.00249 0.032379-0.00249 0.38605 0 0.63761 0.3188 0.63761 0.65006 0 0.28144-0.18431 0.52802-0.44832 0.6127 0.00747 0.087173 0.012453 0.17435 0.012453 0.26152 0 0.047323-0.00249 0.097136-0.00498 0.14446-0.017435 0.29639-0.21918 0.5604-0.50311 0.56787l0.00249-0.1071c0.23163-0.00498 0.38107-0.22914 0.39602-0.47572 0.00249-0.044832 0.00498-0.092154 0.00498-0.13699 0-0.077211-0.00249-0.15193-0.00996-0.22914-0.012453 0.00249-0.10959 0.019925-0.22167 0.019925-0.4807 0-0.82939-0.44832-0.82939-0.93151 0-0.44085 0.32628-0.76214 0.61768-1.0984zm0.44334-0.90411c0-0.084682 0.00249-0.16438-0.049813-0.3213-0.24658 0.11955-0.40349 0.37111-0.40349 0.64508 0 0.12951 0.029888 0.28643 0.089664 0.48319 0.19925-0.24159 0.36364-0.49315 0.36364-0.80697z" fill="#0e51a7"/>
  </g>
  <circle cx="4.0293" cy="3.7553" r="2.4" display="none" fill="none" stroke="#000" stroke-width=".041667"/>
  <g>
   <path d="m6.1866 3.054a2.4 2.4 0 0 1 0.15695 0.85365 2.4 2.4 0 0 1-2.4 2.4 2.4 2.4 0 0 1-2.4-2.4 2.4 2.4 0 0 1 2.4-2.4 2.4 2.4 0 0 1 2.0726 1.1899" fill="none" stroke="#001b64" stroke-width=".042"/>
   <g transform="translate(-.085741 .15243)" fill="#238b49" stroke="#fff" stroke-width=".06" style="paint-order:stroke markers fill">
    <path d="m2.4284 4.5544 2.03e-5 4.06e-5s0.015619 0.036098 0.036987 0.080058c0.021356 0.043968 0.048457 0.095829 0.07135 0.1274 0.015176 0.02092 0.032901 0.040825 0.054179 0.055501 0.027288 0.01876 0.091166 0.039632 0.091166 0.039632s-0.00238-0.060411-0.015503-0.090759c-0.012288-0.0284-0.03922-0.063273-0.062195-0.084045-0.053224-0.048096-0.098484-0.080801-0.13043-0.10148-0.031948-0.02072-0.045575-0.026347-0.045572-0.026347zm0.25936 0.06604c9e-7 1.81e-5 0.00132 0.025669 0.00435 0.057393 0.00304 0.03176 0.00779 0.069665 0.014709 0.094177a0.27973 0.27973 0 0 0 0.034139 0.075277c0.012096 0.01872 0.044169 0.050191 0.044169 0.050191s0.012256-0.039081 0.012044-0.059225c-3.139e-4 -0.03048-0.00778-0.061383-0.020081-0.089335-0.010492-0.02388-0.026815-0.060009-0.046529-0.086161-0.0197-0.0262-0.042806-0.042318-0.042806-0.042318zm0.152 0.21737c-0.00594 2.91e-5 -0.012303 0.00246-0.016358 0.00714-0.00961 0.011202-0.013566 0.029349-0.011963 0.044983 0.00169 0.01652 0.010996 0.032176 0.021952 0.043132 0.00495 0.00492 0.011649 0.00859 0.018229 0.00867 0.00762 1.68e-4 0.016191-0.00288 0.021403-0.00911 0.0078-0.0094 0.010511-0.024149 0.010091-0.037109-4.66e-4 -0.01436-0.00549-0.02929-0.013794-0.040202-0.00678-0.00884-0.016767-0.016194-0.027039-0.017354-8.237e-4 -9.41e-5 -0.00167-1.466e-4 -0.00252-1.425e-4zm0.041504 0.012695v4.07e-5s0.018966 0.070222 0.031962 0.10293c0.011392 0.0286 0.023819 0.057302 0.040975 0.082926 0.014312 0.0214 0.032181 0.045862 0.052287 0.06191 0.016896 0.01348 0.055623 0.026978 0.055623 0.026978s-0.00225-0.050066-0.00899-0.073954c-0.00825-0.02924-0.020684-0.057902-0.037964-0.082926-0.021808-0.0316-0.052752-0.055862-0.080933-0.08193-0.039-0.03608-0.052956-0.03597-0.052958-0.03597zm-0.38387 0.00995c-0.019346 1.078e-4 -0.032221 0.00181-0.032247 0.00181 6.15e-5 6.27e-5 0.070856 0.072217 0.11385 0.097758 0.02046 0.0122 0.043331 0.02103 0.066732 0.02535 0.021868 0.00412 0.066711 0 0.066711 0s-0.00398-0.027962-0.032206-0.060974c-0.0204-0.02388-0.06031-0.038519-0.089722-0.049459-0.029002-0.01078-0.060357-0.01395-0.084452-0.014425-0.00301-5.93e-5 -0.0059-7.64e-5 -0.00867-6.1e-5zm0.20001 0.026082c2.14e-5 4.38e-5 0.041418 0.084834 0.068929 0.1229 0.01852 0.0256 0.038963 0.050602 0.063965 0.069926 0.079661 0.061564 0.1239 0.055969 0.1239 0.055969s-0.00323-0.042835-0.012004-0.061951c-0.018584-0.040516-0.048413-0.0767-0.082926-0.10492-0.04682-0.038231-0.16181-0.08191-0.16187-0.081929zm0.020264 0.13759c-0.00467-6.63e-5 -0.0093 6.357e-4 -0.013509 0.00228-0.00618 0.00239-0.012038 0.00776-0.014058 0.014079h2.03e-5c-0.00417 0.01316-5.451e-4 0.029208 0.00702 0.040792 8e-3 0.01224 0.022468 0.020285 0.03656 0.023885 0.00636 0.00165 0.013766 0.00144 0.019694-0.00142 0.00687-0.00337 0.01329-0.00959 0.015462-0.016825 0.00324-0.01092-1.355e-4 -0.023773-0.00562-0.033773-0.00607-0.01104-0.016465-0.020509-0.028137-0.025309-0.00477-2e-3 -0.010104-0.0033-0.015442-0.00362-6.675e-4 -4.01e-5 -0.00133-7.19e-5 -0.00199-8.14e-5zm0.39209 0.040792c-0.00507-8.08e-5 -0.010072 6.564e-4 -0.014648 0.00244-0.00671 0.00262-0.013102 0.00845-0.015279 0.015279-0.00451 0.014316-5.846e-4 0.031732 0.00763 0.04425 0.00869 0.01324 0.024403 0.02204 0.039713 0.02596 0.00691 0.00179 0.02339 0.00157 0.029826-0.00153 0.00746-0.00361 0.00598-0.010391 0.00834-0.018311 0.00353-0.01188-1.312e-4 -0.025801-0.00608-0.036641-0.00658-0.012-0.017878-0.022326-0.030558-0.027486-0.00518-0.00214-0.010968-0.00353-0.016764-0.00389-7.25e-4 -4.43e-5 -0.00145-6.98e-5 -0.00218-8.13e-5zm-0.36843 0.051656c-0.032629 1.75e-4 -0.058919 0.00177-0.058919 0.00177s0.051545 0.049137 0.080933 0.068949c0.022112 0.01488 0.045641 0.028547 0.070943 0.036947 0.02146 0.00712 0.044354 0.010087 0.066956 0.011007 0.055331 0.00223 0.081929-0.00604 0.081929-0.00604s-6.81e-5 -0.027476-0.047953-0.063944c-0.028012-0.02132-0.062572-0.034273-0.096924-0.041951-0.025365-0.00566-0.064337-0.00691-0.096964-0.00673zm0.44291 0.00348c4.39e-5 6.71e-5 0.036426 0.055586 0.059448 0.079244 0.022748 0.0234 0.049315 0.042971 0.07664 0.060771 0.0246 0.016 0.04966 0.033159 0.077962 0.040955 0.023388 0.00648 0.072672 0.00405 0.072672 0.00405s-0.00934-0.039711-0.019836-0.056803c-0.01564-0.02548-0.037755-0.047362-0.062093-0.064758-0.032396-0.02312-0.070155-0.039-0.10836-0.050212-0.031131-0.00908-0.0964-0.013242-0.096436-0.013245zm1.6888 0c-3.61e-5 2.3e-6 -0.065304 0.00417-0.096436 0.013245-0.038203 0.011212-0.075962 0.027092-0.10836 0.050212-0.024338 0.017396-0.046453 0.039278-0.062093 0.064758-0.0105 0.017092-0.019816 0.056803-0.019816 0.056803s0.049264 0.00243 0.072652-0.00405c0.028302-0.0078 0.053383-0.024955 0.077983-0.040955 0.027325-0.0178 0.053871-0.037371 0.076619-0.060771 0.023022-0.023658 0.059404-0.079177 0.059448-0.079244zm-1.8962 0.031515-2.04e-5 1.221e-4s0.042064 0.04791 0.066081 0.068726c0.029104 0.02524 0.060504 0.048063 0.093811 0.067383 0.01926 0.01116 0.0394 0.021571 0.060791 0.027771 0.02178 0.00636 0.044714 0.0088 0.067383 0.0092 0.01372 2.784e-4 0.040955-0.00405 0.040955-0.00405s-0.024821-0.049133-0.043599-0.068705c-0.021904-0.02284-0.04972-0.039875-0.077962-0.054159-0.036552-0.01848-0.076143-0.031532-0.11627-0.039652-0.029864-0.00612-0.091166-0.00663-0.091166-0.00663zm2.1037 0s-0.061302 5.15e-4 -0.091166 0.00663c-0.040129 0.00812-0.07972 0.021172-0.11627 0.039652-0.028242 0.014284-0.056058 0.031319-0.077962 0.054159-0.018778 0.019572-0.0436 0.068705-0.0436 0.068705s0.027235 0.00433 0.040955 0.00405c0.022669-4e-4 0.045603-0.00284 0.067383-0.0092 0.021391-0.0062 0.041531-0.016611 0.060791-0.027771 0.033307-0.01932 0.064707-0.042143 0.093811-0.067383 0.024017-0.020816 0.066081-0.068726 0.066081-0.068726zm-1.5675 0.091329c-0.00134 3.91e-5 -0.00266 1.612e-4 -0.00397 3.662e-4 -0.00669 0.00107-0.01345 0.00523-0.016378 0.011271-0.00606 0.012557-0.00455 0.029979 0.00167 0.043538 0.00658 0.01436 0.020379 0.025918 0.034383 0.032918 0.00633 0.00317 0.013959 0.0046 0.020447 0.00307 0.00752-0.00186 0.015005-0.00682 0.018229-0.013896 0.00483-0.01052 0.0031-0.02447-0.00118-0.03599-0.00474-0.01272-0.014145-0.02485-0.025513-0.03241-0.00698-0.00468-0.015436-0.00805-0.023621-0.00875-0.00136-1.171e-4 -0.00273-1.611e-4 -0.00407-1.22e-4zm1.0293 0c-6.786e-4 2.01e-5 -0.00135 6.35e-5 -0.00203 1.22e-4 -0.00818 7.032e-4 -0.016638 0.00407-0.023621 0.00875-0.011368 0.00756-0.020773 0.01969-0.025513 0.03241-0.00428 0.01152-0.00601 0.02547-0.00118 0.03599 0.00322 0.00708 0.010709 0.012036 0.018229 0.013896 0.00649 0.00153 0.014117 9.58e-5 0.020447-0.00307 0.014004-7e-3 0.027803-0.018558 0.034383-0.032918 0.00621-0.01356 0.00775-0.030981 0.00169-0.043538-0.00293-0.00604-0.00971-0.010201-0.016398-0.011271-0.00195-3.075e-4 -0.00397-4.266e-4 -6e-3 -3.662e-4zm-1.5122 0.017759c-0.00619 2.52e-5 -0.012355 8.652e-4 -0.018087 0.00254-0.010716 0.00317-0.021395 0.0098-0.026815 0.018758-0.00348 0.00584-0.00465 0.013676-0.00189 0.019836l-2.04e-5 8.14e-5c0.00573 0.01272 0.020058 0.022773 0.034464 0.026733 0.015216 0.00424 0.03295 0.00106 0.047282-0.00521 0.00647-0.00289 0.012522-0.00771 0.015462-0.013753 0.00342-0.00692 0.00441-0.015888 0.0011-0.022888-0.00494-0.01044-0.016753-0.018077-0.028341-0.022237-0.00641-0.0023-0.013439-0.00359-0.020508-0.00382-8.837e-4 -2.94e-5 -0.00176-4.43e-5 -0.00264-4.07e-5zm1.9972 0c-8.839e-4 -3.2e-6 -0.00176 1.07e-5 -0.00264 4.07e-5 -0.00707 2.35e-4 -0.014102 0.00152-0.020508 0.00382-0.011588 0.00416-0.023401 0.011797-0.028341 0.022237-0.00331 7e-3 -0.00232 0.015968 0.0011 0.022888 0.00294 0.00604 0.00899 0.010863 0.015462 0.013753 0.014332 0.00627 0.032066 0.00945 0.047282 0.00521 0.014408-0.00396 0.028734-0.014013 0.034464-0.026733l-2.03e-5 -8.14e-5c0.00276-0.00616 0.00161-0.013996-0.00187-0.019836-0.00542-0.00896-0.016119-0.015588-0.026835-0.018758-0.00573-0.00168-0.0119-0.00252-0.018087-0.00254zm-0.36192 0.075175c-0.010165 7.39e-5 -0.019627 2.789e-4 -0.026794 6.714e-4 -0.050428 0.00276-0.10274 0.00272-0.15019 0.02004-0.040883 0.014892-0.080988 0.037769-0.11013 0.070089-0.010992 0.012172-0.022034 0.044047-0.022034 0.044047s0.068299 0.010952 0.14018-0.00409c0.040521-0.00849 0.079854-0.024047 0.11613-0.044047 0.0409-0.022508 0.11993-0.085925 0.12008-0.086039-7.3e-5 -1.8e-6 -0.016335-3.942e-4 -0.036234-5.901e-4 -0.00997-9.81e-5 -0.020841-1.553e-4 -0.031007-8.13e-5zm-1.4928 0.00722c-0.00298 3.14e-5 -0.0059 8.81e-5 -0.00877 1.831e-4 -0.092078 0.00311-0.14209 0.035645-0.14209 0.035645v8.14e-5s0.035034 0.027359 0.091187 0.043599c0.02776 0.00804 0.055802 0.013069 0.084574 0.015869 0.024584 0.00236 0.073285-7.6e-4 0.097778-0.00403 0.029836-0.00392 0.063416-0.023804 0.063416-0.023804s-0.022276-0.032831-0.046244-0.043599c-0.039262-0.017625-0.095206-0.024418-0.13985-0.023946zm1.7031 0c-0.042963 4.791e-4 -0.094153 0.00749-0.1308 0.023946-0.023968 0.010768-0.046244 0.043599-0.046244 0.043599s0.03358 0.019884 0.063416 0.023804c0.024493 0.00327 0.073194 0.00639 0.097778 0.00403 0.028772-0.0028 0.056814-0.00783 0.084574-0.015869 0.056153-0.01624 0.091187-0.043599 0.091187-0.043599v-8.14e-5c-4e-7 0-0.049991-0.032533-0.14207-0.035645-0.00574-1.9e-4 -0.011705-2.516e-4 -0.017843-1.831e-4zm-1.461 0.10173c-0.010356-8.44e-5 -0.021036 0.00224-0.03009 0.00677-0.00988 0.00492-0.019099 0.013313-0.022827 0.023193-0.00238 0.0064-0.00218 0.014317 0.00155 0.019877v-4.07e-5c0.00775 0.01156 0.023373 0.018965 0.038045 0.020325 0.015484 0.00149 0.032195-0.00467 0.045044-0.013306 0.00581-4e-3 0.010827-0.00981 0.012655-0.016215 0.00213-0.00752 0.00157-0.016386-0.00285-0.022746-0.0066-0.00944-0.019388-0.014928-0.031352-0.016968-0.00331-5.7e-4 -0.00672-8.671e-4 -0.010173-8.952e-4zm1.2279 0c-0.00345 2.81e-5 -0.00687 3.252e-4 -0.010173 8.952e-4 -0.011964 0.00204-0.024752 0.00753-0.031352 0.016968-0.00442 0.00636-0.00498 0.015226-0.00285 0.022746 0.00183 0.0064 0.00686 0.012215 0.012675 0.016215 0.012849 0.00864 0.02954 0.014796 0.045024 0.013306 0.014672-0.00136 0.030295-0.00876 0.038045-0.020325v4.07e-5c0.00373-0.00556 0.00395-0.013477 0.00157-0.019877-0.00373-0.00988-0.012967-0.018273-0.022848-0.023193-0.00905-0.00454-0.019734-0.00686-0.03009-0.00677zm-0.28575 0.044088c-0.016449-2.318e-4 -0.032875 5.632e-4 -0.049113 0.00275-0.027475 0.00368-0.064252 0.0092-0.085124 0.034281 0 0 0.019463 0.020047 0.056071 0.036967 0.02436 0.01115 0.052431 0.012325 0.079183 0.014465 0.029165 0.00234 0.058705 0.00147 0.087769-0.00197 0.043741-0.00515 0.12905-0.027643 0.12923-0.02769-1.825e-4 -6.87e-5 -0.037992-0.022752-0.058634-0.030294-0.035383-0.01292-0.072765-0.020726-0.11019-0.025086-0.016276-0.00192-0.032746-0.00319-0.049194-0.00342z" fill="#238b49" stroke="#fff" stroke-width=".06" style="paint-order:stroke markers fill"/>
   </g>
   <text fill="#007be1" font-size=".25px" letter-spacing=".10417px" stroke-width=".001" xml:space="preserve"><textPath font-family="Futura" font-size=".25px" font-weight="bold" xlink:href="#path4">Cyprus<tspan fill="#007be1" letter-spacing=".15625px"> </tspan>Choral<tspan fill="#007be1" letter-spacing=".15625px"> </tspan>Club</textPath></text>
  </g>
  <path id="path4" d="m2.0048 2.3221a2.5 2.5 0 0 1 2.1145-0.91122 2.5 2.5 0 0 1 1.9627 1.2039l-2.1417 1.2896z" fill="none"/>
 </g>
</svg>
